<svg class="svg-icon" style="vertical-align: middle;fill: #219ebc;overflow: hidden;" viewBox="0 0 1024 1024" version="1.1" xmlns="http://www.w3.org/2000/svg"><path d="M788.54966 907.668027c-0.696599 0.696599-1.393197 2.089796-2.089796 2.786395-23.684354 35.526531-48.761905 71.74966-89.164626 90.557823-17.414966 7.662585-35.526531 13.235374-46.672109 17.414966-55.031293 3.482993-101.006803-1.393197-146.982313-13.235374-165.093878-41.795918-296.054422-128.17415-391.488435-261.22449-16.718367-23.684354-32.740136-48.065306-47.368708-74.536054C44.582313 633.904762 29.257143 595.591837 18.808163 555.885714 6.269388 505.730612 16.718367 459.755102 45.278912 417.959184c9.055782-13.235374 19.504762-26.470748 29.953741-39.009524 0.696599-1.393197 2.089796-2.089796 2.786395-3.482993 30.65034-37.616327 83.591837-48.065306 123.994557-20.89796 32.740136 21.594558 64.087075 45.97551 93.344218 71.74966 35.526531 31.346939 39.706122 82.198639 13.931973 121.208164-0.696599 1.393197-1.393197 2.089796-2.089796 3.482993-7.662585 10.44898-16.021769 20.897959-23.684354 30.65034-18.808163 25.077551-18.111565 46.672109 2.786395 69.659864 50.851701 55.727891 110.759184 99.613605 176.936054 135.140136 24.380952 13.235374 46.672109 8.359184 64.087075-13.931973 9.055782-11.145578 17.414966-22.987755 26.470748-33.436735 0.696599-1.393197 2.089796-2.089796 2.786395-2.786394 31.346939-35.526531 84.288435-43.189116 123.994558-15.32517 29.953741 20.897959 58.514286 42.492517 86.378231 65.480272 38.312925 31.346939 46.672109 81.502041 21.594558 121.208163z" fill="#219ebc" /><path d="M429.104762 529.414966c-13.235374 0-22.291156-8.359184-22.291157-20.201361 0-7.662585 3.482993-13.931973 10.44898-19.504761l57.121088-48.761905c22.987755-19.504762 33.436735-31.346939 33.436735-47.368708 0-15.32517-10.44898-25.077551-25.774149-25.077551-12.538776 0-22.291156 5.572789-33.436735 19.504762-4.179592 4.179592-9.055782 6.965986-14.628572 6.965987-10.44898 0-19.504762-8.359184-19.504762-19.504762 0-4.87619 1.393197-9.055782 4.876191-13.235374 18.111565-22.291156 37.616327-32.043537 65.480272-32.043538 39.009524 0 66.176871 25.077551 66.176871 60.604082 0 32.740136-18.808163 50.851701-50.155102 76.62585l-29.257143 24.380952h64.087075c10.44898 0 18.808163 8.359184 18.808163 18.808164 0 10.44898-8.359184 18.808163-18.808163 18.808163H429.104762zM684.756463 530.808163c-11.145578 0-20.201361-9.055782-20.201361-20.20136v-23.684354H585.142857c-11.145578 0-20.201361-9.055782-20.20136-20.201361 0-6.965986 2.786395-13.931973 8.359183-20.20136l87.771429-104.489796c6.965986-7.662585 12.538776-12.538776 23.684354-12.538776 11.145578 0 20.201361 9.055782 20.20136 20.201361v101.006803h9.752381c10.44898 0 18.111565 7.662585 18.111565 18.111564 0 9.752381-7.662585 17.414966-18.111565 17.414966h-9.752381v23.684354c0 12.538776-9.055782 20.897959-20.20136 20.897959z m-20.201361-78.715646v-57.817687L616.489796 452.092517h48.065306z" fill="#219ebc" /><path d="M552.402721 6.269388C353.872109 6.269388 185.295238 132.353741 121.904762 308.593197c10.44898-2.786395 20.897959-4.179592 32.043537-4.179592 24.380952 0 48.761905 6.965986 68.963266 20.89796 2.786395 2.089796 6.269388 4.179592 9.055782 6.269387 52.244898-126.084354 176.239456-213.855782 320.435374-213.855782 191.564626 0 346.906122 155.341497 346.906123 346.906123 0 111.455782-52.941497 211.069388-135.140137 274.459863 9.055782 6.965986 17.414966 13.931973 26.470749 20.89796 21.594558 18.111565 36.223129 41.09932 42.492517 66.17687 107.972789-83.591837 177.632653-214.552381 177.632653-361.534693C1010.764626 211.765986 805.268027 6.269388 552.402721 6.269388z" fill="#219ebc" /><path d="M310.682993 547.526531c-0.696599 1.393197-1.393197 2.089796-2.089796 3.482993L76.62585 378.94966c0.696599-1.393197 2.089796-2.089796 2.786395-3.482993 30.65034-37.616327 83.591837-48.065306 123.994558-20.89796 32.740136 21.594558 64.087075 45.97551 93.344217 71.74966 35.526531 31.346939 40.402721 82.198639 13.931973 121.208164zM788.54966 907.668027l-230.57415-171.363265c31.346939-35.526531 84.288435-43.189116 123.994558-15.32517 29.953741 20.897959 58.514286 42.492517 86.378231 65.480272 36.919728 31.346939 45.278912 81.502041 20.201361 121.208163z" fill="#184e77" /></svg>