<svg class="svg-icon" style="vertical-align: middle;fill: #219ebc;overflow: hidden;" viewBox="0 0 1024 1024" version="1.1"
    xmlns="http://www.w3.org/2000/svg">
    <path d="M1000.454827 621.206187c-22.606507-71.76192-65.437013-126.723413-133.290667-159.93856-86.411947-42.304853-171.8272-37.584213-254.149973 11.035306-19.29216 11.400533-38.07232 16.493227-59.91424 16.431787-115.981653-0.310613-231.96672-0.34816-347.948374-0.105813-9.833813 0-19.787093-0.679253-29.371733 2.167466-9.366187 2.77504-16.602453 8.16128-17.36704 18.715307-0.84992 11.584853 5.98016 18.373973 15.991467 22.272 10.01472 3.898027 20.906667 3.13344 31.49824 3.147093 91.726507 0.167253 183.453013 0.365227 275.17952 0 41.86112-0.19456 54.54848 8.454827 32.539306 50.469547-11.6736 22.306133-16.073387 47.366827-20.51072 72.2432-5.89824 33.037653-9.888427 36.225707-43.393706 36.52608-81.104213 0.689493-162.218667 0.08192-243.339947 0.324267-10.594987 0-21.302613-0.494933-31.481173 3.372373-9.95328 3.77856-17.104213 10.263893-17.22368 21.68832s6.877867 18.121387 16.7424 22.13888c10.082987 4.113067 20.82816 3.587413 31.423146 3.669333 83.39456 0.2048 166.77888 0.52224 250.156374-0.18432 27.511467-0.232107 44.701013 6.925653 54.203733 36.058454 13.71136 41.984 41.49248 75.73504 75.113813 104.27392 7.963307 6.772053 18.199893 12.51328 12.81024 26.013013-7.66976 5.085867-16.257707 2.638507-24.378026 2.638507-161.51552 0.16384-323.027627 0.2048-484.52608 0.119466-21.981867-0.597333-43.260587-2.071893-61.63456-17.534293-21.828267-18.394453-23.671467-42.758827-24.13568-68.160853V196.836693c-0.23552-11.373227 0.6144-22.746453 2.536106-33.962666 5.40672-28.93824 21.82144-45.837653 50.735787-50.855254 5.874347-0.95232 41.219413-2.77504 48.622933-2.77504 270.359893 0.11264 540.71296 0.11264 811.072854 0 7.417173 0 69.471573 2.21184 85.9648 20.933974 13.25056 15.03232 11.96032 33.49504 18.203306 50.04288v466.46272c-17.75616 0.402773-16.81408-14.967467-20.128426-25.47712z m-78.7968-340.30592H182.09792a23.32672 23.32672 0 0 0 0 46.646613h739.56352a23.32672 23.32672 0 0 0-0.003413-46.646613z m-171.861334 196.03456c119.606613-0.119467 215.79776 94.665387 215.83872 212.660906 0.0512 117.988693-96.385707 213.261653-215.497386 213.316267-119.606613 0-215.84896-94.805333-215.937707-212.712107-0.078507-117.9136 96.34816-213.142187 215.596373-213.265066z m-22.54848 352.494933c0.959147 15.957333 0.904533 25.856 21.68832 24.405333 16.325973-1.13664 28.47744-1.19808 22.121814-22.121813 3.77856-17.22368-0.078507-25.449813-20.251307-24.797867-17.117867 0.57344-24.75008 2.802347-23.558827 22.514347z m-56.75008-209.155413c13.728427 2.607787 18.176-1.696427 20.097707-14.16192 1.460907-9.567573 6.12352-18.162347 11.81696-25.985707 19.862187-27.293013 62.194347-31.706453 88.654507-9.33888 27.880107 23.586133 29.12256 56.490667 2.676053 83.72224-11.59168 11.96032-24.183467 22.811307-36.041387 34.471253-19.288747 18.9952-26.965333 42.786133-28.166826 69.372587-0.457387 9.977173 1.49504 17.414827 13.03552 14.353067 8.840533-2.297173 25.115307 10.120533 25.115306-11.71456 0.09216-24.743253 11.004587-44.004693 29.515094-59.900587a381.873493 381.873493 0 0 0 32.866986-32.187733c12.305067-13.451947 20.452693-29.170347 21.876054-47.960747 4.25984-56.101547-37.901653-96.570027-101.065387-96.8192-49.544533-0.19456-84.76672 23.681707-98.505387 66.740907-7.973547 25.207467-7.492267 24.541867 18.1248 29.40928z" />
</svg>