<svg class="svg-icon" style="vertical-align: middle;fill: currentColor;overflow: hidden;" viewBox="0 0 1024 1024" version="1.1"
    xmlns="http://www.w3.org/2000/svg">
    <!-- <path d="M907.1 930.8H197.9c-2.2 0-4-1.8-4-4V182.4c0-2.2 1.8-4 4-4h709.2c2.2 0 4 1.8 4 4v744.4c0 2.2-1.8 4-4 4z" fill="#219ebc" /> -->
    <path d="M793.5 861.6H162.1c-27.1 0-49.2-22.1-49.2-49.2v-670c0-27.1 22.1-49.2 49.2-49.2h315.7c5.5 0 10 4.5 10 10s-4.5 10-10 10H162.1c-16.1 0-29.2 13.1-29.2 29.2v670.1c0 16.1 13.1 29.2 29.2 29.2h631.4c16.1 0 29.2-13.1 29.2-29.2V142.4c0-16.1-13.1-29.2-29.2-29.2h-36.7c-5.5 0-10-4.5-10-10s4.5-10 10-10h36.7c27.1 0 49.2 22.1 49.2 49.2v670.1c-0.1 27.1-22.1 49.1-49.2 49.1z" fill="#E32223" />
    <path d="M691.2 517.3H554.5c-5.5 0-10-4.5-10-10V113.7c0-11.3 9.2-20.5 20.5-20.5h115.7c11.3 0 20.5 9.2 20.5 20.5v393.7c0 5.5-4.5 9.9-10 9.9z m-126.7-20h116.7V113.7c0-0.2-0.2-0.5-0.5-0.5H565c-0.2 0-0.5 0.2-0.5 0.5v383.6z" fill="#E32223" />
    <path d="M622.9 618.2c-3.3 0-6.4-1.6-8.3-4.4l-68.3-100.9c-2.1-3.1-2.3-7-0.6-10.3 1.7-3.3 5.1-5.3 8.8-5.3h136.7c3.7 0 7.1 2 8.8 5.3 1.7 3.3 1.5 7.2-0.6 10.3l-68.3 100.9c-1.8 2.8-4.9 4.4-8.2 4.4z m-49.5-100.9l49.5 73.1 49.5-73.1h-99z" fill="#E32223" />
    <path d="M402 321.8H254.9c-5.5 0-10-4.5-10-10s4.5-10 10-10H402c5.5 0 10 4.5 10 10s-4.5 10-10 10zM434.7 493.9H254.9c-5.5 0-10-4.5-10-10s4.5-10 10-10h179.8c5.5 0 10 4.5 10 10s-4.5 10-10 10zM506.5 666.1H254.9c-5.5 0-10-4.5-10-10s4.5-10 10-10h251.6c5.5 0 10 4.5 10 10s-4.5 10-10 10z" fill="#E32223" />
</svg>