<?xml version="1.0" ?><svg id="Icons" viewBox="0 0 24 24" xmlns="http://www.w3.org/2000/svg" xmlns:xlink="http://www.w3.org/1999/xlink"><defs><style>.cls-1{fill:url(#linear-gradient);}.cls-2{fill:url(#linear-gradient-2);}.cls-3{fill:url(#linear-gradient-3);}</style><linearGradient gradientUnits="userSpaceOnUse" id="linear-gradient" x1="12" x2="12" y1="2.489" y2="22.692"><stop offset="0" stop-color="#fff650"/><stop offset="1" stop-color="#ffab17"/></linearGradient><linearGradient gradientUnits="userSpaceOnUse" id="linear-gradient-2" x1="12" x2="12" y1="12.766" y2="22.935"><stop offset="0" stop-color="#ff4867"/><stop offset="1" stop-color="#e50031"/></linearGradient><linearGradient id="linear-gradient-3" x2="12" xlink:href="#linear-gradient-2" y1="-0.83" y2="10.006"/></defs><path class="cls-1" d="M21,7.55V21a2.006,2.006,0,0,1-2,2H5a2.006,2.006,0,0,1-2-2V7.55L12,1Z"/><path class="cls-2" d="M10,13h4a1,1,0,0,1,1,1v9a0,0,0,0,1,0,0H9a0,0,0,0,1,0,0V14A1,1,0,0,1,10,13Z"/><path class="cls-3" d="M23,10a1,1,0,0,1-.587-.191L12,2.236,1.588,9.809A1,1,0,0,1,.412,8.191l11-8a1,1,0,0,1,1.176,0l11,8A1,1,0,0,1,23,10Z"/></svg>