<svg class="svg-icon" style="vertical-align: middle;fill: currentColor;overflow: hidden;" viewBox="0 0 1024 1024" version="1.1" xmlns="http://www.w3.org/2000/svg"><path d="M912.4 854.4H111.6c-39.6 0-71.6-32-71.6-71.6V148.4c0-39.6 32-71.6 71.6-71.6h304.8v94.8H126.4v525.6h775.2V171.6h-292.8V76.8h304c39.2 0 71.2 32 71.2 71.2v634.8c0 39.2-32 71.6-71.6 71.6zM111.6 89.6c-32.4 0-58.8 26.4-58.8 58.8v634.4c0 32.4 26.4 58.4 58.8 58.4h800.8c32.4 0 58.4-26.4 58.4-58.4V148c0-32-26-58.4-58.4-58.4h-290.8v68.8h292.8v551.6H113.6V158.4h289.6V89.6H111.6z" fill="#4A555F" /><path d="M944.4 116.4c-6.8-6.8-16-10.8-26.4-10.8h-302.4v37.2h315.2v582.8H98V142.8h312v-37.2H111.6c-23.6 0-42.8 19.2-42.8 42.8v634.4c0 23.6 19.2 42.8 42.8 42.8h800.8c23.6 0 42.8-19.2 42.8-42.8v-640c0-10.4-4-19.6-10.8-26.4z" fill="#E0E0E0" /><path d="M664.4 966h-296l52-124.8h192l52 124.8zM388 952.8h256.8l-41.2-98.8h-174.8L388 952.8z" fill="#4A555F" /><path d="M411.6 937.2l28-67.2h153.6l28 67.2z" fill="#E0E0E0" /><path d="M784.8 1024H248v-71.2h536.8V1024z m-523.6-12.8H772v-45.2H261.2v45.2z" fill="#4A555F" /><path d="M276.8 981.6H756v13.6H276.8z" fill="#E0E0E0" /><path d="M70.8 1011.2h891.2v12.8H70.8z" fill="#4A555F" /><path d="M517.2 776.4m-35.2 0a35.2 35.2 0 1 0 70.4 0 35.2 35.2 0 1 0-70.4 0Z" fill="#FFFFFF" /><path d="M517.2 818c-22.8 0-41.6-18.8-41.6-41.6s18.8-41.6 41.6-41.6 41.6 18.8 41.6 41.6c0 23.2-18.8 41.6-41.6 41.6z m0-70c-15.6 0-28.4 12.8-28.4 28.4 0 15.6 12.8 28.4 28.4 28.4 15.6 0 28.4-12.8 28.4-28.4 0-15.6-12.8-28.4-28.4-28.4z" fill="#4A555F" /><path d="M512.8 492L285.2 317.2h118V0h218.8v317.2h116.8L512.8 492zM323.6 330.4l189.2 145.2 188-145.2h-91.6V12.8h-192.8v317.2H323.6z" fill="#4A555F" /><path d="M368 345.6h63.2V28h162.8v317.6H656l-143.6 110.8z" fill="#F68F6F" /><path d="M814.8 564h-12.8v-12.8h12.8v12.8z m-26 0H776v-12.8h12.8v12.8z m-26 0h-12.8v-12.8h12.8v12.8z m-26 0H724v-12.8h12.8v12.8z m-26 0h-12.8v-12.8h12.8v12.8z m-26 0H672v-12.8h12.8v12.8z m-26 0h-12.8v-12.8h12.8v12.8z m-26 0H620v-12.8h12.8v12.8z m-26 0h-12.8v-12.8h12.8v12.8z m-26 0H568v-12.8h12.8v12.8z m-25.6 0h-12.8v-12.8h12.8v12.8z m-26 0H516v-12.8h12.8v12.8z m-26 0h-12.8v-12.8h12.8v12.8z m-26 0H464v-12.8h12.8v12.8z m-26 0h-12.8v-12.8h12.8v12.8z m-26 0h-12.8v-12.8h12.8v12.8z m-26 0h-12.8v-12.8h12.8v12.8z m-26 0h-12.8v-12.8h12.8v12.8z m-26 0h-12.8v-12.8h12.8v12.8z m-26 0h-12.8v-12.8h12.8v12.8z m-26 0h-12.8v-12.8h12.8v12.8z m-25.6 0h-12.8v-12.8h12.8v12.8z m-26 0h-12.8v-12.8h12.8v12.8z m-26 0h-12.8v-12.8h12.8v12.8z" fill="#4A555F" /><path d="M204.4 599.6h615.2v12.8H204.4z" fill="#4A555F" /></svg>