<svg class="svg-icon" style="vertical-align: middle;fill: currentColor;overflow: hidden;" viewBox="0 0 1024 1024" version="1.1"
    xmlns="http://www.w3.org/2000/svg">
    <path d="M760 391.504V274H622c-18.778 0-34-15.222-34-34V52H72v920h493.039l-27.657 52H54c-18.778 0-34-15.222-34-34V34C20 15.222 35.222 0 54 0h560l198 256v45.438l-52 90.066z" fill="#219ebc" />
    <path d="M390 467H244v52h146v146h52V519h146v-52H442V321h-52v146zM624.006 847.423a33.754 33.754 0 0 1 3.893-10.278L775.041 583.43l103.057 59.233-147.2 253.817a33.878 33.878 0 0 1-6.823 8.344L623.493 994.07 604 1024h-32l25.512-44.863 26.494-131.714zM795.04 548.944l101.5-175.015c9.389-16.189 30.183-21.735 46.445-12.389l44.167 25.386c16.262 9.347 21.834 30.048 12.445 46.237l-101.5 175.015-103.057-59.234zM702 579.872L831.83 355l32.043 18.5-129.83 224.872z" fill="#219ebc" />
</svg>