<svg class="svg-icon" style="vertical-align: middle;fill: currentColor;overflow: hidden;" viewBox="0 0 1024 1024" version="1.1"
    xmlns="http://www.w3.org/2000/svg">
    <path d="M491.13 903.53h-2.38a377.36 377.36 0 0 1-74-746.91 26.39 26.39 0 0 1 10.62 51.71c-149 30.62-257.9 163.48-258.84 315.89a324.53 324.53 0 0 0 322.54 326.52h2c154 0 287.56-109 318.07-259.81a26.39 26.39 0 0 1 51.74 10.46 377 377 0 0 1-369.75 302.14z" fill="#219ebc" />
    <path d="M870.78 541.72H501.27a26.39 26.39 0 0 1-26.39-26.4V146.86a26.39 26.39 0 0 1 26.39-26.39h0.61a397.37 397.37 0 0 1 395.29 394.66 26.39 26.39 0 0 1-26.39 26.59z m-343.12-52.79h315.51C829 322.26 694.53 188.12 527.66 174.41z" fill="#e85d04" />
</svg>