<?xml version="1.0" ?><svg height="512" preserveAspectRatio="xMidYMid" viewBox="0 0 512 512" width="512" xmlns="http://www.w3.org/2000/svg" xmlns:xlink="http://www.w3.org/1999/xlink"><defs><style>
      .cls-1 {
        fill: #fff;
      }

      .cls-2 {
        fill: #4dc247;
      }

      .cls-2, .cls-3 {
        fill-rule: evenodd;
      }

      .cls-3 {
        fill: #000;
        opacity: 0.1;
      }
    </style></defs><circle class="cls-1" cx="256" cy="256" r="256"/><path class="cls-2" d="M256.000,512.000 C114.615,512.000 0.000,397.385 0.000,256.000 C0.000,114.615 114.615,0.000 256.000,0.000 C397.385,0.000 512.000,114.615 512.000,256.000 C512.000,397.385 397.385,512.000 256.000,512.000 ZM238.373,88.000 C148.557,88.000 75.746,160.676 75.746,250.326 C75.746,280.861 84.193,309.428 98.882,333.824 L76.054,401.774 C76.054,401.774 67.704,417.090 84.517,411.951 C108.290,404.683 155.755,390.174 155.755,390.174 C179.968,404.456 208.212,412.651 238.373,412.651 C328.189,412.651 401.000,339.976 401.000,250.326 C401.000,160.676 328.189,88.000 238.373,88.000 ZM238.932,383.645 C212.013,383.645 186.931,375.795 165.859,362.263 L111.417,383.645 L131.334,330.447 C113.989,307.750 103.689,279.402 103.689,248.652 C103.689,174.098 164.239,113.660 238.932,113.660 C313.625,113.660 374.175,174.098 374.175,248.652 C374.175,323.206 313.625,383.645 238.932,383.645 ZM325.325,288.341 C318.107,284.877 294.343,273.325 285.242,270.806 C277.169,268.571 269.135,294.042 261.603,292.467 C228.337,283.963 199.319,247.937 199.937,236.766 C200.251,231.096 216.678,221.715 214.325,216.135 C210.874,207.947 200.619,182.119 196.854,174.875 C194.343,170.781 187.054,172.183 177.326,172.812 C149.709,191.395 118.782,226.798 193.060,300.691 C231.450,338.883 303.239,348.511 320.186,315.160 C323.122,309.383 329.534,290.361 325.325,288.341 Z"/><path class="cls-3" d="M436.999,75.012 C536.959,174.972 536.959,337.039 436.999,436.999 C337.039,536.959 174.972,536.959 75.012,436.999 "/></svg>