<svg class="svg-icon" style=";vertical-align: middle;fill: currentColor;overflow: hidden;" viewBox="0 0 1072 1024" version="1.1"
    xmlns="http://www.w3.org/2000/svg">
    <path d="M79.238095 219.038476v698.806857c0 17.798095 13.238857 32.377905 29.622857 34.011429l3.120762 0.170667h558.32381c16.725333 0 30.96381-13.531429 32.572952-30.890667l0.146286-3.291429v-125.586285h60.952381v125.586285c0 50.614857-39.326476 92.452571-88.868572 95.012572l-4.827428 0.121905h-558.32381c-50.127238 0-91.038476-40.228571-93.549714-90.258286l-0.121905-4.876191V191.683048L213.601524 18.285714h456.655238c50.176 0 91.087238 40.228571 93.574095 90.258286l0.121905 4.87619v184.953905h-60.952381V113.42019c0-17.798095-13.238857-32.377905-29.622857-34.035809l-3.096381-0.146286H236.714667L79.238095 219.038476z" fill="#5AC2EE" />
    <path d="M307.492571 69.510095v217.234286H173.251048v-60.952381l73.264762-0.024381V69.510095zM505.246476 505.904762a30.47619 30.47619 0 0 1 3.120762 60.806095l-3.120762 0.146286H173.251048a30.47619 30.47619 0 0 1-3.096381-60.806095l3.096381-0.146286h331.995428zM463.750095 609.645714a30.47619 30.47619 0 0 1 3.120762 60.806096l-3.120762 0.146285H173.251048a30.47619 30.47619 0 0 1-3.096381-60.781714l3.096381-0.170667h290.499047zM443.001905 754.907429a30.47619 30.47619 0 0 1 3.120762 60.781714l-3.120762 0.170667H173.251048a30.47619 30.47619 0 0 1-3.096381-60.806096l3.096381-0.146285H443.001905zM850.895238 285.208381L577.487238 561.078857a30.47619 30.47619 0 0 0-7.168 11.556572l-73.142857 213.235809a30.47619 30.47619 0 0 0 37.692952 39.009524l210.895238-64.341333a30.47619 30.47619 0 0 0 12.775619-7.704381l278.211048-280.795429c28.623238-28.818286 21.016381-77.092571-10.361905-108.763429l-67.047619-67.705904c-31.573333-31.622095-79.725714-39.350857-108.495238-10.361905z m65.243429 53.321143l66.974476 67.632762 2.389333 2.608762c8.094476 9.508571 9.435429 18.895238 7.996953 20.333714L720.700952 704.463238l-146.480762 44.690286 51.516953-150.137905 268.434286-270.872381c1.26781-1.26781 10.215619 0.024381 19.504761 8.094476l2.486858 2.29181z" fill="#5AC2EE" />
    <path d="M630.564571 566.710857l124.489143 124.489143-43.105524 43.105524-124.489142-124.489143zM568.32 711.94819l41.496381 41.496381-43.105524 43.105524-41.496381-41.496381z" fill="#5AC2EE" />
    <path d="M815.713524 462.945524l43.081143 43.105524-145.237334 145.261714-43.105523-43.105524zM838.046476 359.204571l124.513524 124.513524-43.105524 43.081143-124.513524-124.489143z" fill="#5AC2EE" />
</svg>