<svg xmlns="http://www.w3.org/2000/svg" version="1.1"
    xmlns:xlink="http://www.w3.org/1999/xlink"
    xmlns:svgjs="http://svgjs.dev/svgjs" width="1440" height="560" preserveAspectRatio="none" viewBox="0 0 1440 560">
    <g mask="url(&quot;#SvgjsMask1034&quot;)" fill="none">
        <rect width="1440" height="560" x="0" y="0" fill="#0e2a47"></rect>
        <path d="M-101.29 400.35L-101.29 400.35" stroke="#132e65" stroke-width="1.5"></path>
        <path d="M-101.29 400.35L-90.47 558.34" stroke="#132e65" stroke-width="1.5"></path>
        <path d="M-101.29 400.35L58.8 489.38" stroke="#132e65" stroke-width="1.5"></path>
        <path d="M-101.29 400.35L102.6 395.92" stroke="#132e65" stroke-width="1.5"></path>
        <path d="M-101.29 400.35L-105.09 638.14" stroke="#132e65" stroke-width="1.5"></path>
        <path d="M-101.29 400.35L193.66 375.5" stroke="#132e65" stroke-width="1.5"></path>
        <path d="M-90.47 558.34L-90.47 558.34" stroke="#132e65" stroke-width="1.5"></path>
        <path d="M-90.47 558.34L-105.09 638.14" stroke="#132e65" stroke-width="1.5"></path>
        <path d="M-90.47 558.34L58.8 489.38" stroke="#132e65" stroke-width="1.5"></path>
        <path d="M-105.09 638.14L-105.09 638.14" stroke="#132e65" stroke-width="1.5"></path>
        <path d="M-105.09 638.14L108.19 658.07" stroke="#132e65" stroke-width="1.5"></path>
        <path d="M-105.09 638.14L58.8 489.38" stroke="#132e65" stroke-width="1.5"></path>
        <path d="M-105.09 638.14L102.6 395.92" stroke="#132e65" stroke-width="1.5"></path>
        <path d="M102.6 395.92L102.6 395.92" stroke="#132e65" stroke-width="1.5"></path>
        <path d="M102.6 395.92L193.66 375.5" stroke="#132e65" stroke-width="1.5"></path>
        <path d="M102.6 395.92L58.8 489.38" stroke="#132e65" stroke-width="1.5"></path>
        <path d="M58.8 489.38L58.8 489.38" stroke="#132e65" stroke-width="1.5"></path>
        <path d="M58.8 489.38L226.46 520.08" stroke="#132e65" stroke-width="1.5"></path>
        <path d="M58.8 489.38L108.19 658.07" stroke="#132e65" stroke-width="1.5"></path>
        <path d="M108.19 658.07L108.19 658.07" stroke="#132e65" stroke-width="1.5"></path>
        <path d="M108.19 658.07L226.46 520.08" stroke="#132e65" stroke-width="1.5"></path>
        <path d="M108.19 658.07L-90.47 558.34" stroke="#132e65" stroke-width="1.5"></path>
        <path d="M193.66 375.5L193.66 375.5" stroke="#132e65" stroke-width="1.5"></path>
        <path d="M193.66 375.5L226.46 520.08" stroke="#132e65" stroke-width="1.5"></path>
        <path d="M193.66 375.5L58.8 489.38" stroke="#132e65" stroke-width="1.5"></path>
        <path d="M193.66 375.5L391.29 408.1" stroke="#132e65" stroke-width="1.5"></path>
        <path d="M226.46 520.08L226.46 520.08" stroke="#132e65" stroke-width="1.5"></path>
        <path d="M226.46 520.08L102.6 395.92" stroke="#132e65" stroke-width="1.5"></path>
        <path d="M226.46 520.08L407.27 553.41" stroke="#132e65" stroke-width="1.5"></path>
        <path d="M226.46 520.08L391.29 408.1" stroke="#132e65" stroke-width="1.5"></path>
        <path d="M391.29 408.1L391.29 408.1" stroke="#132e65" stroke-width="1.5"></path>
        <path d="M391.29 408.1L516.07 365.41" stroke="#132e65" stroke-width="1.5"></path>
        <path d="M391.29 408.1L407.27 553.41" stroke="#132e65" stroke-width="1.5"></path>
        <path d="M391.29 408.1L510.43 525.73" stroke="#132e65" stroke-width="1.5"></path>
        <path d="M407.27 553.41L407.27 553.41" stroke="#132e65" stroke-width="1.5"></path>
        <path d="M407.27 553.41L510.43 525.73" stroke="#132e65" stroke-width="1.5"></path>
        <path d="M407.27 553.41L410.78 688.4" stroke="#132e65" stroke-width="1.5"></path>
        <path d="M410.78 688.4L410.78 688.4" stroke="#132e65" stroke-width="1.5"></path>
        <path d="M410.78 688.4L514.98 638.61" stroke="#132e65" stroke-width="1.5"></path>
        <path d="M410.78 688.4L510.43 525.73" stroke="#132e65" stroke-width="1.5"></path>
        <path d="M410.78 688.4L226.46 520.08" stroke="#132e65" stroke-width="1.5"></path>
        <path d="M516.07 365.41L516.07 365.41" stroke="#132e65" stroke-width="1.5"></path>
        <path d="M516.07 365.41L510.43 525.73" stroke="#132e65" stroke-width="1.5"></path>
        <path d="M516.07 365.41L690.75 350.91" stroke="#132e65" stroke-width="1.5"></path>
        <path d="M516.07 365.41L671.87 496.07" stroke="#132e65" stroke-width="1.5"></path>
        <path d="M516.07 365.41L679.99 243.12" stroke="#132e65" stroke-width="1.5"></path>
        <path d="M510.43 525.73L510.43 525.73" stroke="#132e65" stroke-width="1.5"></path>
        <path d="M510.43 525.73L514.98 638.61" stroke="#132e65" stroke-width="1.5"></path>
        <path d="M514.98 638.61L514.98 638.61" stroke="#132e65" stroke-width="1.5"></path>
        <path d="M514.98 638.61L407.27 553.41" stroke="#132e65" stroke-width="1.5"></path>
        <path d="M514.98 638.61L697.83 644.04" stroke="#132e65" stroke-width="1.5"></path>
        <path d="M679.99 243.12L679.99 243.12" stroke="#132e65" stroke-width="1.5"></path>
        <path d="M679.99 243.12L690.75 350.91" stroke="#132e65" stroke-width="1.5"></path>
        <path d="M679.99 243.12L825.84 201.35" stroke="#132e65" stroke-width="1.5"></path>
        <path d="M679.99 243.12L802.22 390.29" stroke="#132e65" stroke-width="1.5"></path>
        <path d="M679.99 243.12L854.66 71.92" stroke="#132e65" stroke-width="1.5"></path>
        <path d="M679.99 243.12L671.87 496.07" stroke="#132e65" stroke-width="1.5"></path>
        <path d="M690.75 350.91L690.75 350.91" stroke="#132e65" stroke-width="1.5"></path>
        <path d="M690.75 350.91L802.22 390.29" stroke="#132e65" stroke-width="1.5"></path>
        <path d="M690.75 350.91L671.87 496.07" stroke="#132e65" stroke-width="1.5"></path>
        <path d="M690.75 350.91L825.84 201.35" stroke="#132e65" stroke-width="1.5"></path>
        <path d="M690.75 350.91L827.1 530.4" stroke="#132e65" stroke-width="1.5"></path>
        <path d="M671.87 496.07L671.87 496.07" stroke="#132e65" stroke-width="1.5"></path>
        <path d="M671.87 496.07L697.83 644.04" stroke="#132e65" stroke-width="1.5"></path>
        <path d="M697.83 644.04L697.83 644.04" stroke="#132e65" stroke-width="1.5"></path>
        <path d="M697.83 644.04L828.98 673.88" stroke="#132e65" stroke-width="1.5"></path>
        <path d="M854.66 71.92L854.66 71.92" stroke="#132e65" stroke-width="1.5"></path>
        <path d="M854.66 71.92L945.51 47.28" stroke="#132e65" stroke-width="1.5"></path>
        <path d="M854.66 71.92L825.84 201.35" stroke="#132e65" stroke-width="1.5"></path>
        <path d="M825.84 201.35L825.84 201.35" stroke="#132e65" stroke-width="1.5"></path>
        <path d="M825.84 201.35L942.89 252.92" stroke="#132e65" stroke-width="1.5"></path>
        <path d="M825.84 201.35L802.22 390.29" stroke="#132e65" stroke-width="1.5"></path>
        <path d="M802.22 390.29L802.22 390.29" stroke="#132e65" stroke-width="1.5"></path>
        <path d="M802.22 390.29L827.1 530.4" stroke="#132e65" stroke-width="1.5"></path>
        <path d="M802.22 390.29L941.23 357.35" stroke="#132e65" stroke-width="1.5"></path>
        <path d="M802.22 390.29L671.87 496.07" stroke="#132e65" stroke-width="1.5"></path>
        <path d="M827.1 530.4L827.1 530.4" stroke="#132e65" stroke-width="1.5"></path>
        <path d="M827.1 530.4L828.98 673.88" stroke="#132e65" stroke-width="1.5"></path>
        <path d="M827.1 530.4L671.87 496.07" stroke="#132e65" stroke-width="1.5"></path>
        <path d="M828.98 673.88L828.98 673.88" stroke="#132e65" stroke-width="1.5"></path>
        <path d="M828.98 673.88L985.26 690.86" stroke="#132e65" stroke-width="1.5"></path>
        <path d="M948.81 -101.77L948.81 -101.77" stroke="#132e65" stroke-width="1.5"></path>
        <path d="M948.81 -101.77L945.51 47.28" stroke="#132e65" stroke-width="1.5"></path>
        <path d="M948.81 -101.77L1126.93 -85.88" stroke="#132e65" stroke-width="1.5"></path>
        <path d="M945.51 47.28L945.51 47.28" stroke="#132e65" stroke-width="1.5"></path>
        <path d="M945.51 47.28L825.84 201.35" stroke="#132e65" stroke-width="1.5"></path>
        <path d="M945.51 47.28L942.89 252.92" stroke="#132e65" stroke-width="1.5"></path>
        <path d="M945.51 47.28L1126.93 -85.88" stroke="#132e65" stroke-width="1.5"></path>
        <path d="M942.89 252.92L942.89 252.92" stroke="#132e65" stroke-width="1.5"></path>
        <path d="M942.89 252.92L941.23 357.35" stroke="#132e65" stroke-width="1.5"></path>
        <path d="M942.89 252.92L1094.68 234.53" stroke="#132e65" stroke-width="1.5"></path>
        <path d="M941.23 357.35L941.23 357.35" stroke="#132e65" stroke-width="1.5"></path>
        <path d="M941.23 357.35L825.84 201.35" stroke="#132e65" stroke-width="1.5"></path>
        <path d="M941.23 357.35L1094.68 234.53" stroke="#132e65" stroke-width="1.5"></path>
        <path d="M941.23 357.35L998.31 556.21" stroke="#132e65" stroke-width="1.5"></path>
        <path d="M998.31 556.21L998.31 556.21" stroke="#132e65" stroke-width="1.5"></path>
        <path d="M998.31 556.21L985.26 690.86" stroke="#132e65" stroke-width="1.5"></path>
        <path d="M998.31 556.21L1159.59 511.48" stroke="#132e65" stroke-width="1.5"></path>
        <path d="M998.31 556.21L827.1 530.4" stroke="#132e65" stroke-width="1.5"></path>
        <path d="M998.31 556.21L828.98 673.88" stroke="#132e65" stroke-width="1.5"></path>
        <path d="M998.31 556.21L1152.39 373.63" stroke="#132e65" stroke-width="1.5"></path>
        <path d="M985.26 690.86L985.26 690.86" stroke="#132e65" stroke-width="1.5"></path>
        <path d="M985.26 690.86L827.1 530.4" stroke="#132e65" stroke-width="1.5"></path>
        <path d="M985.26 690.86L1159.59 511.48" stroke="#132e65" stroke-width="1.5"></path>
        <path d="M985.26 690.86L1272.26 661.81" stroke="#132e65" stroke-width="1.5"></path>
        <path d="M985.26 690.86L697.83 644.04" stroke="#132e65" stroke-width="1.5"></path>
        <path d="M1126.93 -85.88L1126.93 -85.88" stroke="#132e65" stroke-width="1.5"></path>
        <path d="M1126.93 -85.88L1298.25 -110.37" stroke="#132e65" stroke-width="1.5"></path>
        <path d="M1126.93 -85.88L1290.23 97.61" stroke="#132e65" stroke-width="1.5"></path>
        <path d="M1094.68 234.53L1094.68 234.53" stroke="#132e65" stroke-width="1.5"></path>
        <path d="M1094.68 234.53L1152.39 373.63" stroke="#132e65" stroke-width="1.5"></path>
        <path d="M1152.39 373.63L1152.39 373.63" stroke="#132e65" stroke-width="1.5"></path>
        <path d="M1152.39 373.63L1252.89 340.17" stroke="#132e65" stroke-width="1.5"></path>
        <path d="M1152.39 373.63L1159.59 511.48" stroke="#132e65" stroke-width="1.5"></path>
        <path d="M1152.39 373.63L941.23 357.35" stroke="#132e65" stroke-width="1.5"></path>
        <path d="M1159.59 511.48L1159.59 511.48" stroke="#132e65" stroke-width="1.5"></path>
        <path d="M1159.59 511.48L1290.57 555.71" stroke="#132e65" stroke-width="1.5"></path>
        <path d="M1159.59 511.48L1272.26 661.81" stroke="#132e65" stroke-width="1.5"></path>
        <path d="M1159.59 511.48L1252.89 340.17" stroke="#132e65" stroke-width="1.5"></path>
        <path d="M1298.25 -110.37L1298.25 -110.37" stroke="#132e65" stroke-width="1.5"></path>
        <path d="M1298.25 -110.37L1423.78 -92.17" stroke="#132e65" stroke-width="1.5"></path>
        <path d="M1298.25 -110.37L1290.23 97.61" stroke="#132e65" stroke-width="1.5"></path>
        <path d="M1298.25 -110.37L1434.63 88.27" stroke="#132e65" stroke-width="1.5"></path>
        <path d="M1290.23 97.61L1290.23 97.61" stroke="#132e65" stroke-width="1.5"></path>
        <path d="M1290.23 97.61L1295.41 202.12" stroke="#132e65" stroke-width="1.5"></path>
        <path d="M1290.23 97.61L1434.63 88.27" stroke="#132e65" stroke-width="1.5"></path>
        <path d="M1290.23 97.61L1423.78 -92.17" stroke="#132e65" stroke-width="1.5"></path>
        <path d="M1290.23 97.61L1094.68 234.53" stroke="#132e65" stroke-width="1.5"></path>
        <path d="M1290.23 97.61L1252.89 340.17" stroke="#132e65" stroke-width="1.5"></path>
        <path d="M1295.41 202.12L1295.41 202.12" stroke="#132e65" stroke-width="1.5"></path>
        <path d="M1295.41 202.12L1252.89 340.17" stroke="#132e65" stroke-width="1.5"></path>
        <path d="M1295.41 202.12L1389.49 343.17" stroke="#132e65" stroke-width="1.5"></path>
        <path d="M1252.89 340.17L1252.89 340.17" stroke="#132e65" stroke-width="1.5"></path>
        <path d="M1252.89 340.17L1389.49 343.17" stroke="#132e65" stroke-width="1.5"></path>
        <path d="M1252.89 340.17L1094.68 234.53" stroke="#132e65" stroke-width="1.5"></path>
        <path d="M1290.57 555.71L1290.57 555.71" stroke="#132e65" stroke-width="1.5"></path>
        <path d="M1290.57 555.71L1272.26 661.81" stroke="#132e65" stroke-width="1.5"></path>
        <path d="M1290.57 555.71L1446.7 497.79" stroke="#132e65" stroke-width="1.5"></path>
        <path d="M1272.26 661.81L1272.26 661.81" stroke="#132e65" stroke-width="1.5"></path>
        <path d="M1272.26 661.81L1457.06 663.79" stroke="#132e65" stroke-width="1.5"></path>
        <path d="M1272.26 661.81L1446.7 497.79" stroke="#132e65" stroke-width="1.5"></path>
        <path d="M1423.78 -92.17L1423.78 -92.17" stroke="#132e65" stroke-width="1.5"></path>
        <path d="M1423.78 -92.17L1434.63 88.27" stroke="#132e65" stroke-width="1.5"></path>
        <path d="M1423.78 -92.17L1556.68 95.77" stroke="#132e65" stroke-width="1.5"></path>
        <path d="M1423.78 -92.17L1126.93 -85.88" stroke="#132e65" stroke-width="1.5"></path>
        <path d="M1423.78 -92.17L1295.41 202.12" stroke="#132e65" stroke-width="1.5"></path>
        <path d="M1434.63 88.27L1434.63 88.27" stroke="#132e65" stroke-width="1.5"></path>
        <path d="M1434.63 88.27L1556.68 95.77" stroke="#132e65" stroke-width="1.5"></path>
        <path d="M1434.63 88.27L1295.41 202.12" stroke="#132e65" stroke-width="1.5"></path>
        <path d="M1434.63 88.27L1590.64 259.09" stroke="#132e65" stroke-width="1.5"></path>
        <path d="M1389.49 343.17L1389.49 343.17" stroke="#132e65" stroke-width="1.5"></path>
        <path d="M1389.49 343.17L1446.7 497.79" stroke="#132e65" stroke-width="1.5"></path>
        <path d="M1446.7 497.79L1446.7 497.79" stroke="#132e65" stroke-width="1.5"></path>
        <path d="M1446.7 497.79L1590.86 511.01" stroke="#132e65" stroke-width="1.5"></path>
        <path d="M1446.7 497.79L1457.06 663.79" stroke="#132e65" stroke-width="1.5"></path>
        <path d="M1457.06 663.79L1457.06 663.79" stroke="#132e65" stroke-width="1.5"></path>
        <path d="M1457.06 663.79L1598.3 646.8" stroke="#132e65" stroke-width="1.5"></path>
        <path d="M1457.06 663.79L1290.57 555.71" stroke="#132e65" stroke-width="1.5"></path>
        <path d="M1457.06 663.79L1590.86 511.01" stroke="#132e65" stroke-width="1.5"></path>
        <path d="M1457.06 663.79L1609.64 410.87" stroke="#132e65" stroke-width="1.5"></path>
        <path d="M1556.68 95.77L1556.68 95.77" stroke="#132e65" stroke-width="1.5"></path>
        <path d="M1556.68 95.77L1590.64 259.09" stroke="#132e65" stroke-width="1.5"></path>
        <path d="M1556.68 95.77L1290.23 97.61" stroke="#132e65" stroke-width="1.5"></path>
        <path d="M1590.64 259.09L1590.64 259.09" stroke="#132e65" stroke-width="1.5"></path>
        <path d="M1590.64 259.09L1609.64 410.87" stroke="#132e65" stroke-width="1.5"></path>
        <path d="M1590.64 259.09L1389.49 343.17" stroke="#132e65" stroke-width="1.5"></path>
        <path d="M1590.64 259.09L1590.86 511.01" stroke="#132e65" stroke-width="1.5"></path>
        <path d="M1609.64 410.87L1609.64 410.87" stroke="#132e65" stroke-width="1.5"></path>
        <path d="M1609.64 410.87L1590.86 511.01" stroke="#132e65" stroke-width="1.5"></path>
        <path d="M1609.64 410.87L1446.7 497.79" stroke="#132e65" stroke-width="1.5"></path>
        <path d="M1609.64 410.87L1389.49 343.17" stroke="#132e65" stroke-width="1.5"></path>
        <path d="M1609.64 410.87L1598.3 646.8" stroke="#132e65" stroke-width="1.5"></path>
        <path d="M1590.86 511.01L1590.86 511.01" stroke="#132e65" stroke-width="1.5"></path>
        <path d="M1590.86 511.01L1598.3 646.8" stroke="#132e65" stroke-width="1.5"></path>
        <path d="M1598.3 646.8L1598.3 646.8" stroke="#132e65" stroke-width="1.5"></path>
        <path d="M1598.3 646.8L1446.7 497.79" stroke="#132e65" stroke-width="1.5"></path>
        <circle r="5" cx="-101.29" cy="400.35" fill="#132e65"></circle>
        <circle r="5" cx="-90.47" cy="558.34" fill="#132e65"></circle>
        <circle r="5" cx="-105.09" cy="638.14" fill="#132e65"></circle>
        <circle r="5" cx="102.6" cy="395.92" fill="#132e65"></circle>
        <circle r="5" cx="58.8" cy="489.38" fill="#132e65"></circle>
        <circle r="5" cx="108.19" cy="658.07" fill="#132e65"></circle>
        <circle r="5" cx="193.66" cy="375.5" fill="#132e65"></circle>
        <circle r="5" cx="226.46" cy="520.08" fill="#132e65"></circle>
        <circle r="5" cx="391.29" cy="408.1" fill="#132e65"></circle>
        <circle r="5" cx="407.27" cy="553.41" fill="#132e65"></circle>
        <circle r="5" cx="410.78" cy="688.4" fill="#132e65"></circle>
        <circle r="5" cx="516.07" cy="365.41" fill="#132e65"></circle>
        <circle r="5" cx="510.43" cy="525.73" fill="#132e65"></circle>
        <circle r="5" cx="514.98" cy="638.61" fill="#132e65"></circle>
        <circle r="5" cx="679.99" cy="243.12" fill="#132e65"></circle>
        <circle r="5" cx="690.75" cy="350.91" fill="#132e65"></circle>
        <circle r="5" cx="671.87" cy="496.07" fill="#132e65"></circle>
        <circle r="5" cx="697.83" cy="644.04" fill="#132e65"></circle>
        <circle r="5" cx="854.66" cy="71.92" fill="#132e65"></circle>
        <circle r="5" cx="825.84" cy="201.35" fill="#132e65"></circle>
        <circle r="5" cx="802.22" cy="390.29" fill="#132e65"></circle>
        <circle r="5" cx="827.1" cy="530.4" fill="#132e65"></circle>
        <circle r="5" cx="828.98" cy="673.88" fill="#132e65"></circle>
        <circle r="5" cx="948.81" cy="-101.77" fill="#132e65"></circle>
        <circle r="5" cx="945.51" cy="47.28" fill="#132e65"></circle>
        <circle r="5" cx="942.89" cy="252.92" fill="#132e65"></circle>
        <circle r="5" cx="941.23" cy="357.35" fill="#132e65"></circle>
        <circle r="5" cx="998.31" cy="556.21" fill="#132e65"></circle>
        <circle r="5" cx="985.26" cy="690.86" fill="#132e65"></circle>
        <circle r="5" cx="1126.93" cy="-85.88" fill="#132e65"></circle>
        <circle r="5" cx="1094.68" cy="234.53" fill="#132e65"></circle>
        <circle r="5" cx="1152.39" cy="373.63" fill="#132e65"></circle>
        <circle r="5" cx="1159.59" cy="511.48" fill="#132e65"></circle>
        <circle r="5" cx="1298.25" cy="-110.37" fill="#132e65"></circle>
        <circle r="5" cx="1290.23" cy="97.61" fill="#132e65"></circle>
        <circle r="5" cx="1295.41" cy="202.12" fill="#132e65"></circle>
        <circle r="5" cx="1252.89" cy="340.17" fill="#132e65"></circle>
        <circle r="5" cx="1290.57" cy="555.71" fill="#132e65"></circle>
        <circle r="5" cx="1272.26" cy="661.81" fill="#132e65"></circle>
        <circle r="5" cx="1423.78" cy="-92.17" fill="#132e65"></circle>
        <circle r="5" cx="1434.63" cy="88.27" fill="#132e65"></circle>
        <circle r="5" cx="1389.49" cy="343.17" fill="#132e65"></circle>
        <circle r="5" cx="1446.7" cy="497.79" fill="#132e65"></circle>
        <circle r="5" cx="1457.06" cy="663.79" fill="#132e65"></circle>
        <circle r="5" cx="1556.68" cy="95.77" fill="#132e65"></circle>
        <circle r="5" cx="1590.64" cy="259.09" fill="#132e65"></circle>
        <circle r="5" cx="1609.64" cy="410.87" fill="#132e65"></circle>
        <circle r="5" cx="1590.86" cy="511.01" fill="#132e65"></circle>
        <circle r="5" cx="1598.3" cy="646.8" fill="#132e65"></circle>
        <path d="M499.65 404.31L499.65 404.31" stroke="hsl(228.5, 77.2%, 51.5%)" stroke-width="1.5"></path>
        <path d="M499.65 404.31L545.11 512.09" stroke="hsl(228.5, 77.2%, 51.5%)" stroke-width="1.5"></path>
        <path d="M499.65 404.31L639.38 538.15" stroke="hsl(228.5, 77.2%, 51.5%)" stroke-width="1.5"></path>
        <path d="M499.65 404.31L349.34 532.14" stroke="hsl(228.5, 77.2%, 51.5%)" stroke-width="1.5"></path>
        <path d="M499.65 404.31L710.52 355.25" stroke="hsl(228.5, 77.2%, 51.5%)" stroke-width="1.5"></path>
        <path d="M499.65 404.31L496.93 658.2" stroke="hsl(228.5, 77.2%, 51.5%)" stroke-width="1.5"></path>
        <path d="M545.11 512.09L545.11 512.09" stroke="hsl(228.5, 77.2%, 51.5%)" stroke-width="1.5"></path>
        <path d="M545.11 512.09L639.38 538.15" stroke="hsl(228.5, 77.2%, 51.5%)" stroke-width="1.5"></path>
        <path d="M545.11 512.09L496.93 658.2" stroke="hsl(228.5, 77.2%, 51.5%)" stroke-width="1.5"></path>
        <path d="M545.11 512.09L349.34 532.14" stroke="hsl(228.5, 77.2%, 51.5%)" stroke-width="1.5"></path>
        <path d="M545.11 512.09L710.52 355.25" stroke="hsl(228.5, 77.2%, 51.5%)" stroke-width="1.5"></path>
        <path d="M496.93 658.2L496.93 658.2" stroke="hsl(228.5, 77.2%, 51.5%)" stroke-width="1.5"></path>
        <path d="M496.93 658.2L395.89 706.4" stroke="hsl(228.5, 77.2%, 51.5%)" stroke-width="1.5"></path>
        <path d="M496.93 658.2L639.38 538.15" stroke="hsl(228.5, 77.2%, 51.5%)" stroke-width="1.5"></path>
        <path d="M496.93 658.2L349.34 532.14" stroke="hsl(228.5, 77.2%, 51.5%)" stroke-width="1.5"></path>
        <path d="M859.77 520.71L859.77 520.71" stroke="hsl(228.5, 77.2%, 51.5%)" stroke-width="1.5"></path>
        <path d="M859.77 520.71L950.63 544.98" stroke="hsl(228.5, 77.2%, 51.5%)" stroke-width="1.5"></path>
        <path d="M859.77 520.71L792.96 653.62" stroke="hsl(228.5, 77.2%, 51.5%)" stroke-width="1.5"></path>
        <path d="M792.96 653.62L792.96 653.62" stroke="hsl(228.5, 77.2%, 51.5%)" stroke-width="1.5"></path>
        <path d="M792.96 653.62L950.63 544.98" stroke="hsl(228.5, 77.2%, 51.5%)" stroke-width="1.5"></path>
        <path d="M792.96 653.62L639.38 538.15" stroke="hsl(228.5, 77.2%, 51.5%)" stroke-width="1.5"></path>
        <path d="M792.96 653.62L1003.75 651.48" stroke="hsl(228.5, 77.2%, 51.5%)" stroke-width="1.5"></path>
        <path d="M792.96 653.62L545.11 512.09" stroke="hsl(228.5, 77.2%, 51.5%)" stroke-width="1.5"></path>
        <path d="M792.96 653.62L496.93 658.2" stroke="hsl(228.5, 77.2%, 51.5%)" stroke-width="1.5"></path>
        <path d="M1111.63 405.84L1111.63 405.84" stroke="hsl(228.5, 77.2%, 51.5%)" stroke-width="1.5"></path>
        <path d="M1111.63 405.84L1094.84 516.06" stroke="hsl(228.5, 77.2%, 51.5%)" stroke-width="1.5"></path>
        <path d="M1111.63 405.84L1271.74 370.53" stroke="hsl(228.5, 77.2%, 51.5%)" stroke-width="1.5"></path>
        <path d="M1111.63 405.84L944.1 346.97" stroke="hsl(228.5, 77.2%, 51.5%)" stroke-width="1.5"></path>
        <path d="M1276.19 694.76L1276.19 694.76" stroke="hsl(228.5, 77.2%, 51.5%)" stroke-width="1.5"></path>
        <path d="M1276.19 694.76L1157.64 678.08" stroke="hsl(228.5, 77.2%, 51.5%)" stroke-width="1.5"></path>
        <path d="M1276.19 694.76L1415.03 645.11" stroke="hsl(228.5, 77.2%, 51.5%)" stroke-width="1.5"></path>
        <path d="M1558.82 62.47L1558.82 62.47" stroke="hsl(228.5, 77.2%, 51.5%)" stroke-width="1.5"></path>
        <path d="M1558.82 62.47L1456.55 72.43" stroke="hsl(228.5, 77.2%, 51.5%)" stroke-width="1.5"></path>
        <path d="M1558.82 62.47L1602.37 -38.44" stroke="hsl(228.5, 77.2%, 51.5%)" stroke-width="1.5"></path>
        <path d="M1558.82 62.47L1551.5 192.84" stroke="hsl(228.5, 77.2%, 51.5%)" stroke-width="1.5"></path>
        <path d="M1558.82 62.47L1393.67 -54.48" stroke="hsl(228.5, 77.2%, 51.5%)" stroke-width="1.5"></path>
        <path d="M-54.36 531.96L-54.36 531.96" stroke="hsl(228.5, 77.2%, 51.5%)" stroke-width="1.5"></path>
        <path d="M-54.36 531.96L-100.5 660.42" stroke="hsl(228.5, 77.2%, 51.5%)" stroke-width="1.5"></path>
        <path d="M-54.36 531.96L81.08 493.12" stroke="hsl(228.5, 77.2%, 51.5%)" stroke-width="1.5"></path>
        <path d="M-100.5 660.42L-100.5 660.42" stroke="hsl(228.5, 77.2%, 51.5%)" stroke-width="1.5"></path>
        <path d="M-100.5 660.42L94.41 660.96" stroke="hsl(228.5, 77.2%, 51.5%)" stroke-width="1.5"></path>
        <path d="M-100.5 660.42L81.08 493.12" stroke="hsl(228.5, 77.2%, 51.5%)" stroke-width="1.5"></path>
        <path d="M-100.5 660.42L219.7 666.14" stroke="hsl(228.5, 77.2%, 51.5%)" stroke-width="1.5"></path>
        <path d="M81.08 493.12L81.08 493.12" stroke="hsl(228.5, 77.2%, 51.5%)" stroke-width="1.5"></path>
        <path d="M81.08 493.12L201.18 496.86" stroke="hsl(228.5, 77.2%, 51.5%)" stroke-width="1.5"></path>
        <path d="M81.08 493.12L94.41 660.96" stroke="hsl(228.5, 77.2%, 51.5%)" stroke-width="1.5"></path>
        <path d="M81.08 493.12L219.7 666.14" stroke="hsl(228.5, 77.2%, 51.5%)" stroke-width="1.5"></path>
        <path d="M94.41 660.96L94.41 660.96" stroke="hsl(228.5, 77.2%, 51.5%)" stroke-width="1.5"></path>
        <path d="M94.41 660.96L219.7 666.14" stroke="hsl(228.5, 77.2%, 51.5%)" stroke-width="1.5"></path>
        <path d="M94.41 660.96L201.18 496.86" stroke="hsl(228.5, 77.2%, 51.5%)" stroke-width="1.5"></path>
        <path d="M94.41 660.96L-54.36 531.96" stroke="hsl(228.5, 77.2%, 51.5%)" stroke-width="1.5"></path>
        <path d="M201.18 496.86L201.18 496.86" stroke="hsl(228.5, 77.2%, 51.5%)" stroke-width="1.5"></path>
        <path d="M201.18 496.86L349.34 532.14" stroke="hsl(228.5, 77.2%, 51.5%)" stroke-width="1.5"></path>
        <path d="M201.18 496.86L219.7 666.14" stroke="hsl(228.5, 77.2%, 51.5%)" stroke-width="1.5"></path>
        <path d="M201.18 496.86L-54.36 531.96" stroke="hsl(228.5, 77.2%, 51.5%)" stroke-width="1.5"></path>
        <path d="M201.18 496.86L395.89 706.4" stroke="hsl(228.5, 77.2%, 51.5%)" stroke-width="1.5"></path>
        <path d="M219.7 666.14L219.7 666.14" stroke="hsl(228.5, 77.2%, 51.5%)" stroke-width="1.5"></path>
        <path d="M219.7 666.14L395.89 706.4" stroke="hsl(228.5, 77.2%, 51.5%)" stroke-width="1.5"></path>
        <path d="M349.34 532.14L349.34 532.14" stroke="hsl(228.5, 77.2%, 51.5%)" stroke-width="1.5"></path>
        <path d="M349.34 532.14L395.89 706.4" stroke="hsl(228.5, 77.2%, 51.5%)" stroke-width="1.5"></path>
        <path d="M349.34 532.14L219.7 666.14" stroke="hsl(228.5, 77.2%, 51.5%)" stroke-width="1.5"></path>
        <path d="M395.89 706.4L395.89 706.4" stroke="hsl(228.5, 77.2%, 51.5%)" stroke-width="1.5"></path>
        <path d="M710.52 355.25L710.52 355.25" stroke="hsl(228.5, 77.2%, 51.5%)" stroke-width="1.5"></path>
        <path d="M710.52 355.25L832.55 350.06" stroke="hsl(228.5, 77.2%, 51.5%)" stroke-width="1.5"></path>
        <path d="M710.52 355.25L639.38 538.15" stroke="hsl(228.5, 77.2%, 51.5%)" stroke-width="1.5"></path>
        <path d="M710.52 355.25L859.77 520.71" stroke="hsl(228.5, 77.2%, 51.5%)" stroke-width="1.5"></path>
        <path d="M639.38 538.15L639.38 538.15" stroke="hsl(228.5, 77.2%, 51.5%)" stroke-width="1.5"></path>
        <path d="M832.55 350.06L832.55 350.06" stroke="hsl(228.5, 77.2%, 51.5%)" stroke-width="1.5"></path>
        <path d="M832.55 350.06L944.1 346.97" stroke="hsl(228.5, 77.2%, 51.5%)" stroke-width="1.5"></path>
        <path d="M832.55 350.06L859.77 520.71" stroke="hsl(228.5, 77.2%, 51.5%)" stroke-width="1.5"></path>
        <path d="M832.55 350.06L950.63 544.98" stroke="hsl(228.5, 77.2%, 51.5%)" stroke-width="1.5"></path>
        <path d="M832.55 350.06L639.38 538.15" stroke="hsl(228.5, 77.2%, 51.5%)" stroke-width="1.5"></path>
        <path d="M944.1 346.97L944.1 346.97" stroke="hsl(228.5, 77.2%, 51.5%)" stroke-width="1.5"></path>
        <path d="M944.1 346.97L859.77 520.71" stroke="hsl(228.5, 77.2%, 51.5%)" stroke-width="1.5"></path>
        <path d="M944.1 346.97L950.63 544.98" stroke="hsl(228.5, 77.2%, 51.5%)" stroke-width="1.5"></path>
        <path d="M944.1 346.97L1094.84 516.06" stroke="hsl(228.5, 77.2%, 51.5%)" stroke-width="1.5"></path>
        <path d="M950.63 544.98L950.63 544.98" stroke="hsl(228.5, 77.2%, 51.5%)" stroke-width="1.5"></path>
        <path d="M950.63 544.98L1003.75 651.48" stroke="hsl(228.5, 77.2%, 51.5%)" stroke-width="1.5"></path>
        <path d="M950.63 544.98L1094.84 516.06" stroke="hsl(228.5, 77.2%, 51.5%)" stroke-width="1.5"></path>
        <path d="M1003.75 651.48L1003.75 651.48" stroke="hsl(228.5, 77.2%, 51.5%)" stroke-width="1.5"></path>
        <path d="M1003.75 651.48L1157.64 678.08" stroke="hsl(228.5, 77.2%, 51.5%)" stroke-width="1.5"></path>
        <path d="M1003.75 651.48L1094.84 516.06" stroke="hsl(228.5, 77.2%, 51.5%)" stroke-width="1.5"></path>
        <path d="M1003.75 651.48L859.77 520.71" stroke="hsl(228.5, 77.2%, 51.5%)" stroke-width="1.5"></path>
        <path d="M1003.75 651.48L1111.63 405.84" stroke="hsl(228.5, 77.2%, 51.5%)" stroke-width="1.5"></path>
        <path d="M1158.57 -106.82L1158.57 -106.82" stroke="hsl(228.5, 77.2%, 51.5%)" stroke-width="1.5"></path>
        <path d="M1158.57 -106.82L1393.67 -54.48" stroke="hsl(228.5, 77.2%, 51.5%)" stroke-width="1.5"></path>
        <path d="M1158.57 -106.82L1156.36 195.71" stroke="hsl(228.5, 77.2%, 51.5%)" stroke-width="1.5"></path>
        <path d="M1158.57 -106.82L1456.55 72.43" stroke="hsl(228.5, 77.2%, 51.5%)" stroke-width="1.5"></path>
        <path d="M1158.57 -106.82L1558.82 62.47" stroke="hsl(228.5, 77.2%, 51.5%)" stroke-width="1.5"></path>
        <path d="M1158.57 -106.82L1602.37 -38.44" stroke="hsl(228.5, 77.2%, 51.5%)" stroke-width="1.5"></path>
        <path d="M1156.36 195.71L1156.36 195.71" stroke="hsl(228.5, 77.2%, 51.5%)" stroke-width="1.5"></path>
        <path d="M1156.36 195.71L1271.74 370.53" stroke="hsl(228.5, 77.2%, 51.5%)" stroke-width="1.5"></path>
        <path d="M1156.36 195.71L1111.63 405.84" stroke="hsl(228.5, 77.2%, 51.5%)" stroke-width="1.5"></path>
        <path d="M1156.36 195.71L944.1 346.97" stroke="hsl(228.5, 77.2%, 51.5%)" stroke-width="1.5"></path>
        <path d="M1156.36 195.71L1435.93 261.42" stroke="hsl(228.5, 77.2%, 51.5%)" stroke-width="1.5"></path>
        <path d="M1156.36 195.71L1399.62 363.95" stroke="hsl(228.5, 77.2%, 51.5%)" stroke-width="1.5"></path>
        <path d="M1094.84 516.06L1094.84 516.06" stroke="hsl(228.5, 77.2%, 51.5%)" stroke-width="1.5"></path>
        <path d="M1094.84 516.06L1157.64 678.08" stroke="hsl(228.5, 77.2%, 51.5%)" stroke-width="1.5"></path>
        <path d="M1094.84 516.06L1294.58 531.75" stroke="hsl(228.5, 77.2%, 51.5%)" stroke-width="1.5"></path>
        <path d="M1157.64 678.08L1157.64 678.08" stroke="hsl(228.5, 77.2%, 51.5%)" stroke-width="1.5"></path>
        <path d="M1157.64 678.08L1294.58 531.75" stroke="hsl(228.5, 77.2%, 51.5%)" stroke-width="1.5"></path>
        <path d="M1271.74 370.53L1271.74 370.53" stroke="hsl(228.5, 77.2%, 51.5%)" stroke-width="1.5"></path>
        <path d="M1271.74 370.53L1399.62 363.95" stroke="hsl(228.5, 77.2%, 51.5%)" stroke-width="1.5"></path>
        <path d="M1271.74 370.53L1294.58 531.75" stroke="hsl(228.5, 77.2%, 51.5%)" stroke-width="1.5"></path>
        <path d="M1271.74 370.53L1435.93 261.42" stroke="hsl(228.5, 77.2%, 51.5%)" stroke-width="1.5"></path>
        <path d="M1271.74 370.53L1094.84 516.06" stroke="hsl(228.5, 77.2%, 51.5%)" stroke-width="1.5"></path>
        <path d="M1294.58 531.75L1294.58 531.75" stroke="hsl(228.5, 77.2%, 51.5%)" stroke-width="1.5"></path>
        <path d="M1294.58 531.75L1409.2 560.59" stroke="hsl(228.5, 77.2%, 51.5%)" stroke-width="1.5"></path>
        <path d="M1294.58 531.75L1276.19 694.76" stroke="hsl(228.5, 77.2%, 51.5%)" stroke-width="1.5"></path>
        <path d="M1294.58 531.75L1415.03 645.11" stroke="hsl(228.5, 77.2%, 51.5%)" stroke-width="1.5"></path>
        <path d="M1294.58 531.75L1399.62 363.95" stroke="hsl(228.5, 77.2%, 51.5%)" stroke-width="1.5"></path>
        <path d="M1393.67 -54.48L1393.67 -54.48" stroke="hsl(228.5, 77.2%, 51.5%)" stroke-width="1.5"></path>
        <path d="M1393.67 -54.48L1456.55 72.43" stroke="hsl(228.5, 77.2%, 51.5%)" stroke-width="1.5"></path>
        <path d="M1393.67 -54.48L1602.37 -38.44" stroke="hsl(228.5, 77.2%, 51.5%)" stroke-width="1.5"></path>
        <path d="M1456.55 72.43L1456.55 72.43" stroke="hsl(228.5, 77.2%, 51.5%)" stroke-width="1.5"></path>
        <path d="M1456.55 72.43L1551.5 192.84" stroke="hsl(228.5, 77.2%, 51.5%)" stroke-width="1.5"></path>
        <path d="M1456.55 72.43L1602.37 -38.44" stroke="hsl(228.5, 77.2%, 51.5%)" stroke-width="1.5"></path>
        <path d="M1435.93 261.42L1435.93 261.42" stroke="hsl(228.5, 77.2%, 51.5%)" stroke-width="1.5"></path>
        <path d="M1435.93 261.42L1399.62 363.95" stroke="hsl(228.5, 77.2%, 51.5%)" stroke-width="1.5"></path>
        <path d="M1435.93 261.42L1551.5 192.84" stroke="hsl(228.5, 77.2%, 51.5%)" stroke-width="1.5"></path>
        <path d="M1435.93 261.42L1456.55 72.43" stroke="hsl(228.5, 77.2%, 51.5%)" stroke-width="1.5"></path>
        <path d="M1435.93 261.42L1609.58 369.48" stroke="hsl(228.5, 77.2%, 51.5%)" stroke-width="1.5"></path>
        <path d="M1399.62 363.95L1399.62 363.95" stroke="hsl(228.5, 77.2%, 51.5%)" stroke-width="1.5"></path>
        <path d="M1399.62 363.95L1409.2 560.59" stroke="hsl(228.5, 77.2%, 51.5%)" stroke-width="1.5"></path>
        <path d="M1399.62 363.95L1609.58 369.48" stroke="hsl(228.5, 77.2%, 51.5%)" stroke-width="1.5"></path>
        <path d="M1409.2 560.59L1409.2 560.59" stroke="hsl(228.5, 77.2%, 51.5%)" stroke-width="1.5"></path>
        <path d="M1409.2 560.59L1415.03 645.11" stroke="hsl(228.5, 77.2%, 51.5%)" stroke-width="1.5"></path>
        <path d="M1409.2 560.59L1559.59 508.43" stroke="hsl(228.5, 77.2%, 51.5%)" stroke-width="1.5"></path>
        <path d="M1409.2 560.59L1576.9 646.68" stroke="hsl(228.5, 77.2%, 51.5%)" stroke-width="1.5"></path>
        <path d="M1415.03 645.11L1415.03 645.11" stroke="hsl(228.5, 77.2%, 51.5%)" stroke-width="1.5"></path>
        <path d="M1415.03 645.11L1576.9 646.68" stroke="hsl(228.5, 77.2%, 51.5%)" stroke-width="1.5"></path>
        <path d="M1415.03 645.11L1559.59 508.43" stroke="hsl(228.5, 77.2%, 51.5%)" stroke-width="1.5"></path>
        <path d="M1602.37 -38.44L1602.37 -38.44" stroke="hsl(228.5, 77.2%, 51.5%)" stroke-width="1.5"></path>
        <path d="M1551.5 192.84L1551.5 192.84" stroke="hsl(228.5, 77.2%, 51.5%)" stroke-width="1.5"></path>
        <path d="M1551.5 192.84L1609.58 369.48" stroke="hsl(228.5, 77.2%, 51.5%)" stroke-width="1.5"></path>
        <path d="M1609.58 369.48L1609.58 369.48" stroke="hsl(228.5, 77.2%, 51.5%)" stroke-width="1.5"></path>
        <path d="M1609.58 369.48L1559.59 508.43" stroke="hsl(228.5, 77.2%, 51.5%)" stroke-width="1.5"></path>
        <path d="M1609.58 369.48L1409.2 560.59" stroke="hsl(228.5, 77.2%, 51.5%)" stroke-width="1.5"></path>
        <path d="M1609.58 369.48L1576.9 646.68" stroke="hsl(228.5, 77.2%, 51.5%)" stroke-width="1.5"></path>
        <path d="M1559.59 508.43L1559.59 508.43" stroke="hsl(228.5, 77.2%, 51.5%)" stroke-width="1.5"></path>
        <path d="M1559.59 508.43L1576.9 646.68" stroke="hsl(228.5, 77.2%, 51.5%)" stroke-width="1.5"></path>
        <path d="M1576.9 646.68L1576.9 646.68" stroke="hsl(228.5, 77.2%, 51.5%)" stroke-width="1.5"></path>
        <path d="M1576.9 646.68L1276.19 694.76" stroke="hsl(228.5, 77.2%, 51.5%)" stroke-width="1.5"></path>
        <circle r="25" cx="499.65" cy="404.31" fill="url(&quot;#SvgjsRadialGradient1035&quot;)"></circle>
        <circle r="25" cx="545.11" cy="512.09" fill="url(&quot;#SvgjsRadialGradient1035&quot;)"></circle>
        <circle r="25" cx="496.93" cy="658.2" fill="url(&quot;#SvgjsRadialGradient1035&quot;)"></circle>
        <circle r="25" cx="859.77" cy="520.71" fill="url(&quot;#SvgjsRadialGradient1035&quot;)"></circle>
        <circle r="25" cx="792.96" cy="653.62" fill="url(&quot;#SvgjsRadialGradient1035&quot;)"></circle>
        <circle r="25" cx="1111.63" cy="405.84" fill="url(&quot;#SvgjsRadialGradient1035&quot;)"></circle>
        <circle r="25" cx="1276.19" cy="694.76" fill="url(&quot;#SvgjsRadialGradient1035&quot;)"></circle>
        <circle r="25" cx="1558.82" cy="62.47" fill="url(&quot;#SvgjsRadialGradient1035&quot;)"></circle>
        <circle r="5" cx="-54.36" cy="531.96" fill="#8b9ad9"></circle>
        <circle r="5" cx="-100.5" cy="660.42" fill="#8b9ad9"></circle>
        <circle r="5" cx="81.08" cy="493.12" fill="#8b9ad9"></circle>
        <circle r="5" cx="94.41" cy="660.96" fill="#8b9ad9"></circle>
        <circle r="5" cx="201.18" cy="496.86" fill="#8b9ad9"></circle>
        <circle r="5" cx="219.7" cy="666.14" fill="#8b9ad9"></circle>
        <circle r="5" cx="349.34" cy="532.14" fill="#8b9ad9"></circle>
        <circle r="5" cx="395.89" cy="706.4" fill="#8b9ad9"></circle>
        <circle r="5" cx="710.52" cy="355.25" fill="#8b9ad9"></circle>
        <circle r="5" cx="639.38" cy="538.15" fill="#8b9ad9"></circle>
        <circle r="5" cx="832.55" cy="350.06" fill="#8b9ad9"></circle>
        <circle r="5" cx="944.1" cy="346.97" fill="#8b9ad9"></circle>
        <circle r="5" cx="950.63" cy="544.98" fill="#8b9ad9"></circle>
        <circle r="5" cx="1003.75" cy="651.48" fill="#8b9ad9"></circle>
        <circle r="5" cx="1158.57" cy="-106.82" fill="#8b9ad9"></circle>
        <circle r="5" cx="1156.36" cy="195.71" fill="#8b9ad9"></circle>
        <circle r="5" cx="1094.84" cy="516.06" fill="#8b9ad9"></circle>
        <circle r="5" cx="1157.64" cy="678.08" fill="#8b9ad9"></circle>
        <circle r="5" cx="1271.74" cy="370.53" fill="#8b9ad9"></circle>
        <circle r="5" cx="1294.58" cy="531.75" fill="#8b9ad9"></circle>
        <circle r="5" cx="1393.67" cy="-54.48" fill="#8b9ad9"></circle>
        <circle r="5" cx="1456.55" cy="72.43" fill="#8b9ad9"></circle>
        <circle r="5" cx="1435.93" cy="261.42" fill="#8b9ad9"></circle>
        <circle r="5" cx="1399.62" cy="363.95" fill="#8b9ad9"></circle>
        <circle r="5" cx="1409.2" cy="560.59" fill="#8b9ad9"></circle>
        <circle r="5" cx="1415.03" cy="645.11" fill="#8b9ad9"></circle>
        <circle r="5" cx="1602.37" cy="-38.44" fill="#8b9ad9"></circle>
        <circle r="5" cx="1551.5" cy="192.84" fill="#8b9ad9"></circle>
        <circle r="5" cx="1609.58" cy="369.48" fill="#8b9ad9"></circle>
        <circle r="5" cx="1559.59" cy="508.43" fill="#8b9ad9"></circle>
        <circle r="5" cx="1576.9" cy="646.68" fill="#8b9ad9"></circle>
    </g>
    <defs>
        <mask id="SvgjsMask1034">
            <rect width="1440" height="560" fill="#ffffff"></rect>
        </mask>
        <radialGradient id="SvgjsRadialGradient1035">
            <stop stop-color="#ffffff" offset="0.1"></stop>
            <stop stop-color="#1735b3" offset="0.2"></stop>
            <stop stop-color="rgba(23, 53, 179, 0)" offset="1"></stop>
        </radialGradient>
    </defs>
</svg>