<svg xmlns="http://www.w3.org/2000/svg" version="1.1" xmlns:xlink="http://www.w3.org/1999/xlink" xmlns:svgjs="http://svgjs.dev/svgjs" width="1440" height="560" preserveAspectRatio="none" viewBox="0 0 1440 560">
    <g mask="url(&quot;#SvgjsMask1024&quot;)" fill="none">
        <rect width="1440" height="560" x="0" y="0" fill="#0e2a47"></rect>
        <path d="M178 378L177 182" stroke-width="8" stroke="url(&quot;#SvgjsLinearGradient1025&quot;)" stroke-linecap="round" class="Up"></path>
        <path d="M780 243L779 562" stroke-width="8" stroke="url(&quot;#SvgjsLinearGradient1026&quot;)" stroke-linecap="round" class="Down"></path>
        <path d="M568 461L567 845" stroke-width="10" stroke="url(&quot;#SvgjsLinearGradient1025&quot;)" stroke-linecap="round" class="Up"></path>
        <path d="M1069 524L1068 853" stroke-width="10" stroke="url(&quot;#SvgjsLinearGradient1026&quot;)" stroke-linecap="round" class="Down"></path>
        <path d="M387 35L386 296" stroke-width="6" stroke="url(&quot;#SvgjsLinearGradient1025&quot;)" stroke-linecap="round" class="Up"></path>
        <path d="M791 473L790 670" stroke-width="8" stroke="url(&quot;#SvgjsLinearGradient1025&quot;)" stroke-linecap="round" class="Up"></path>
        <path d="M414 253L413 -57" stroke-width="6" stroke="url(&quot;#SvgjsLinearGradient1026&quot;)" stroke-linecap="round" class="Down"></path>
        <path d="M200 60L199 -293" stroke-width="8" stroke="url(&quot;#SvgjsLinearGradient1025&quot;)" stroke-linecap="round" class="Up"></path>
        <path d="M718 310L717 722" stroke-width="8" stroke="url(&quot;#SvgjsLinearGradient1026&quot;)" stroke-linecap="round" class="Down"></path>
        <path d="M726 180L725 595" stroke-width="10" stroke="url(&quot;#SvgjsLinearGradient1026&quot;)" stroke-linecap="round" class="Down"></path>
        <path d="M1067 10L1066 -378" stroke-width="10" stroke="url(&quot;#SvgjsLinearGradient1026&quot;)" stroke-linecap="round" class="Down"></path>
        <path d="M411 255L410 -58" stroke-width="6" stroke="url(&quot;#SvgjsLinearGradient1026&quot;)" stroke-linecap="round" class="Down"></path>
        <path d="M1360 265L1359 102" stroke-width="8" stroke="url(&quot;#SvgjsLinearGradient1025&quot;)" stroke-linecap="round" class="Up"></path>
        <path d="M1177 285L1176 143" stroke-width="10" stroke="url(&quot;#SvgjsLinearGradient1026&quot;)" stroke-linecap="round" class="Down"></path>
        <path d="M1177 70L1176 -221" stroke-width="8" stroke="url(&quot;#SvgjsLinearGradient1025&quot;)" stroke-linecap="round" class="Up"></path>
        <path d="M1132 444L1131 303" stroke-width="8" stroke="url(&quot;#SvgjsLinearGradient1025&quot;)" stroke-linecap="round" class="Up"></path>
        <path d="M1186 165L1185 -28" stroke-width="6" stroke="url(&quot;#SvgjsLinearGradient1025&quot;)" stroke-linecap="round" class="Up"></path>
        <path d="M1089 531L1088 386" stroke-width="8" stroke="url(&quot;#SvgjsLinearGradient1026&quot;)" stroke-linecap="round" class="Down"></path>
        <path d="M1429 258L1428 616" stroke-width="6" stroke="url(&quot;#SvgjsLinearGradient1026&quot;)" stroke-linecap="round" class="Down"></path>
        <path d="M200 9L199 281" stroke-width="10" stroke="url(&quot;#SvgjsLinearGradient1025&quot;)" stroke-linecap="round" class="Up"></path>
        <path d="M1233 330L1232 173" stroke-width="10" stroke="url(&quot;#SvgjsLinearGradient1025&quot;)" stroke-linecap="round" class="Up"></path>
        <path d="M906 367L905 17" stroke-width="10" stroke="url(&quot;#SvgjsLinearGradient1025&quot;)" stroke-linecap="round" class="Up"></path>
        <path d="M457 160L456 385" stroke-width="6" stroke="url(&quot;#SvgjsLinearGradient1025&quot;)" stroke-linecap="round" class="Up"></path>
        <path d="M1019 70L1018 396" stroke-width="10" stroke="url(&quot;#SvgjsLinearGradient1026&quot;)" stroke-linecap="round" class="Down"></path>
        <path d="M43 338L42 529" stroke-width="8" stroke="url(&quot;#SvgjsLinearGradient1025&quot;)" stroke-linecap="round" class="Up"></path>
        <path d="M42 62L41 420" stroke-width="6" stroke="url(&quot;#SvgjsLinearGradient1025&quot;)" stroke-linecap="round" class="Up"></path>
        <path d="M343 493L342 270" stroke-width="8" stroke="url(&quot;#SvgjsLinearGradient1025&quot;)" stroke-linecap="round" class="Up"></path>
        <path d="M491 397L490 747" stroke-width="8" stroke="url(&quot;#SvgjsLinearGradient1025&quot;)" stroke-linecap="round" class="Up"></path>
        <path d="M296 522L295 775" stroke-width="8" stroke="url(&quot;#SvgjsLinearGradient1025&quot;)" stroke-linecap="round" class="Up"></path>
        <path d="M1005 319L1004 640" stroke-width="6" stroke="url(&quot;#SvgjsLinearGradient1025&quot;)" stroke-linecap="round" class="Up"></path>
        <path d="M246 154L245 569" stroke-width="6" stroke="url(&quot;#SvgjsLinearGradient1026&quot;)" stroke-linecap="round" class="Down"></path>
        <path d="M430 500L429 177" stroke-width="6" stroke="url(&quot;#SvgjsLinearGradient1025&quot;)" stroke-linecap="round" class="Up"></path>
        <path d="M160 354L159 712" stroke-width="8" stroke="url(&quot;#SvgjsLinearGradient1026&quot;)" stroke-linecap="round" class="Down"></path>
        <path d="M901 18L900 417" stroke-width="8" stroke="url(&quot;#SvgjsLinearGradient1026&quot;)" stroke-linecap="round" class="Down"></path>
        <path d="M181 499L180 694" stroke-width="10" stroke="url(&quot;#SvgjsLinearGradient1025&quot;)" stroke-linecap="round" class="Up"></path>
        <path d="M1220 551L1219 923" stroke-width="8" stroke="url(&quot;#SvgjsLinearGradient1026&quot;)" stroke-linecap="round" class="Down"></path>
    </g>
    <defs>
        <mask id="SvgjsMask1024">
            <rect width="1440" height="560" fill="#ffffff"></rect>
        </mask>
        <linearGradient x1="0%" y1="100%" x2="0%" y2="0%" id="SvgjsLinearGradient1025">
            <stop stop-color="rgba(28, 83, 142, 0)" offset="0"></stop>
            <stop stop-color="#1c538e" offset="1"></stop>
        </linearGradient>
        <linearGradient x1="0%" y1="0%" x2="0%" y2="100%" id="SvgjsLinearGradient1026">
            <stop stop-color="rgba(28, 83, 142, 0)" offset="0"></stop>
            <stop stop-color="#1c538e" offset="1"></stop>
        </linearGradient>
    </defs>
</svg>