<svg xmlns="http://www.w3.org/2000/svg" version="1.1" xmlns:xlink="http://www.w3.org/1999/xlink" xmlns:svgjs="http://svgjs.dev/svgjs" width="1920" height="1080" preserveAspectRatio="none" viewBox="0 0 1920 1080"><g mask="url(&quot;#SvgjsMask1135&quot;)" fill="none"><rect width="1920" height="1080" x="0" y="0" fill="#0e2a47"></rect><path d="M21 1080L1101 0L1221 0L141 1080z" fill="url(&quot;#SvgjsLinearGradient1136&quot;)"></path><path d="M689.6 1080L1769.6 0L2659.1 0L1579.1 1080z" fill="url(&quot;#SvgjsLinearGradient1136&quot;)"></path><path d="M1901 1080L821 0L407 0L1487 1080z" fill="url(&quot;#SvgjsLinearGradient1137&quot;)"></path><path d="M1174.4 1080L94.40000000000009 0L-70.59999999999991 0L1009.4000000000001 1080z" fill="url(&quot;#SvgjsLinearGradient1137&quot;)"></path><path d="M963.8179443399795 1080L1920 123.81794433997948L1920 1080z" fill="url(&quot;#SvgjsLinearGradient1136&quot;)"></path><path d="M0 1080L956.1820556600205 1080L 0 123.81794433997948z" fill="url(&quot;#SvgjsLinearGradient1137&quot;)"></path></g><defs><mask id="SvgjsMask1135"><rect width="1920" height="1080" fill="#ffffff"></rect></mask><linearGradient x1="0%" y1="100%" x2="100%" y2="0%" id="SvgjsLinearGradient1136"><stop stop-color="rgba(15, 70, 185, 0.2)" offset="0"></stop><stop stop-opacity="0" stop-color="rgba(15, 70, 185, 0.2)" offset="0.66"></stop></linearGradient><linearGradient x1="100%" y1="100%" x2="0%" y2="0%" id="SvgjsLinearGradient1137"><stop stop-color="rgba(15, 70, 185, 0.2)" offset="0"></stop><stop stop-opacity="0" stop-color="rgba(15, 70, 185, 0.2)" offset="0.66"></stop></linearGradient></defs></svg>