<svg xmlns="http://www.w3.org/2000/svg" version="1.1" xmlns:xlink="http://www.w3.org/1999/xlink" xmlns:svgjs="http://svgjs.dev/svgjs" width="1920" height="1080" preserveAspectRatio="none" viewBox="0 0 1920 1080"><g mask="url(&quot;#SvgjsMask1219&quot;)" fill="none"><rect width="1920" height="1080" x="0" y="0" fill="url(&quot;#SvgjsLinearGradient1220&quot;)"></rect><path d="M102.6177725891711 574.7293098207458L-141.67433536103974 688.6445905847568 216.53305335318203 819.0214177709566z" fill="rgba(28, 83, 142, 0.4)" class="triangle-float1"></path><path d="M-64.96336490601544 180.57194548573506L-38.833304629434885 303.50421382542254 132.50006774180605 202.84298924070794z" fill="rgba(28, 83, 142, 0.4)" class="triangle-float3"></path><path d="M331.72467467213846 891.349419386785L191.62455791526548 705.4302849361618 5.705423464642308 845.5304016930348 145.8055402215153 1031.449536143658z" fill="rgba(28, 83, 142, 0.4)" class="triangle-float2"></path><path d="M1616.043,276.714C1662.898,279.948,1713.935,273.06,1740.479,234.313C1770.095,191.081,1775.302,130.834,1745.513,87.721C1718.353,48.412,1663.761,51.798,1616.043,54.217C1574.03,56.347,1528.954,63.618,1507.471,99.786C1485.639,136.542,1495.825,182.531,1518.185,218.968C1539.417,253.567,1575.545,273.918,1616.043,276.714" fill="rgba(28, 83, 142, 0.4)" class="triangle-float3"></path><path d="M730.1504854609032 530.3460517043395L1019.7916680885451 576.2207083097553 1065.6663246939609 286.57952568211346 776.025142066319 240.70486907669766z" fill="rgba(28, 83, 142, 0.4)" class="triangle-float2"></path><path d="M2075.638,1115.368C2175.567,1113.983,2262.818,1049.755,2309.009,961.131C2351.899,878.84,2333.743,784.418,2291.079,702.01C2243.717,610.528,2178.391,517.704,2075.638,510.367C1962.488,502.288,1852.924,566.891,1799.387,666.901C1748.384,762.178,1774.112,875.743,1830.792,967.757C1884.363,1054.724,1973.506,1116.783,2075.638,1115.368" fill="rgba(28, 83, 142, 0.4)" class="triangle-float1"></path></g><defs><mask id="SvgjsMask1219"><rect width="1920" height="1080" fill="#ffffff"></rect></mask><linearGradient x1="89.06%" y1="-19.44%" x2="10.94%" y2="119.44%" gradientUnits="userSpaceOnUse" id="SvgjsLinearGradient1220"><stop stop-color="#0e2a47" offset="0"></stop><stop stop-color="rgba(0, 18, 41, 1)" offset="1"></stop></linearGradient><style>
                @keyframes float1 {
                    0%{transform: translate(0, 0)}
                    50%{transform: translate(-10px, 0)}
                    100%{transform: translate(0, 0)}
                }

                .triangle-float1 {
                    animation: float1 5s infinite;
                }

                @keyframes float2 {
                    0%{transform: translate(0, 0)}
                    50%{transform: translate(-5px, -5px)}
                    100%{transform: translate(0, 0)}
                }

                .triangle-float2 {
                    animation: float2 4s infinite;
                }

                @keyframes float3 {
                    0%{transform: translate(0, 0)}
                    50%{transform: translate(0, -10px)}
                    100%{transform: translate(0, 0)}
                }

                .triangle-float3 {
                    animation: float3 6s infinite;
                }
            </style></defs></svg>