<svg xmlns="http://www.w3.org/2000/svg" version="1.1"
    xmlns:xlink="http://www.w3.org/1999/xlink"
    xmlns:svgjs="http://svgjs.dev/svgjs" width="1440" height="560" preserveAspectRatio="none" viewBox="0 0 1440 560">
    <g mask="url(&quot;#SvgjsMask1189&quot;)" fill="none">
        <rect width="1440" height="560" x="0" y="0" fill="url(&quot;#SvgjsLinearGradient1190&quot;)"></rect>
        <path d="M634.2379953074098 314.8604547595839L624.7949337635124 448.0779267716118 730.6020375602071 398.73926398401215z" fill="rgba(28, 83, 142, 0.4)" class="triangle-float1"></path>
        <path d="M1155.9894616151666 59.48336623201689L1228.2866190375817 99.55833498556721 1252.2504934566998-28.924885524830472z" fill="rgba(28, 83, 142, 0.4)" class="triangle-float2"></path>
        <path d="M1099.812,164.736C1137.387,163.325,1165.512,134.11,1183.728,101.216C1201.267,69.545,1209.038,31.508,1190.963,0.14C1172.866,-31.267,1136.052,-43.635,1099.812,-44.416C1061.868,-45.234,1021.761,-36.091,1001.592,-3.941C980.341,29.933,984.099,73.4,1004.221,107.956C1024.209,142.283,1060.118,166.226,1099.812,164.736" fill="rgba(28, 83, 142, 0.4)" class="triangle-float1"></path>
        <path d="M1179.3923306562795 301.2087450827796L1186.647881547163 404.96795688189667 1290.4070933462801 397.71240599101304 1283.1515424553966 293.95319419189593z" fill="rgba(28, 83, 142, 0.4)" class="triangle-float3"></path>
        <path d="M939.3392526028778 383.2741740913283L818.396681766142 355.2309505128939 848.3109702359526 459.55447219973485z" fill="rgba(28, 83, 142, 0.4)" class="triangle-float1"></path>
        <path d="M694.43 554.59 a164.34 164.34 0 1 0 328.68 0 a164.34 164.34 0 1 0 -328.68 0z" fill="rgba(28, 83, 142, 0.4)" class="triangle-float1"></path>
    </g>
    <defs>
        <mask id="SvgjsMask1189">
            <rect width="1440" height="560" fill="#111"></rect>
        </mask>
        <linearGradient x1="84.72%" y1="-39.29%" x2="15.28%" y2="139.29%" gradientUnits="userSpaceOnUse" id="SvgjsLinearGradient1190">
            <!-- <stop stop-color="#0e2a47" offset="0"></stop> -->
            <stop stop-color="#14110f" offset="0"></stop>
            <stop stop-color="#040404" offset="1"></stop>
        </linearGradient>
        <style>
                @keyframes float1 {
                    0%{transform: translate(0, 0)}
                    33%{transform: translate(-50%, -50%)}
                    66%{transform: translate(-50%, 50%)}
                    100%{transform: translate(0, 0)}
                }

                .triangle-float1 {
                    animation: float1 180s infinite ease-out;
                }

                @keyframes float2 {
                    0%{transform: translate(0, 0)}
                    50%{transform: translate(-100%, 0)}
                    100%{transform: translate(0, 0)}
                }

                .triangle-float2 {
                    animation: float2 180s infinite;
                }

                @keyframes float3 {
                    0%{transform: translate(0, 0)}
                    50%{transform: translate(-50%, 30%)}
                    100%{transform: translate(0, 0)}
                }

                .triangle-float3 {
                    animation: float3 180s infinite;
                }
        </style>
    </defs>
</svg>