<svg xmlns="http://www.w3.org/2000/svg" version="1.1"
    xmlns:xlink="http://www.w3.org/1999/xlink"
    xmlns:svgjs="http://svgjs.dev/svgjs" width="1920" height="1080" preserveAspectRatio="none" viewBox="0 0 1920 1080">
    <g mask="url(&quot;#SvgjsMask1403&quot;)" fill="none">
        <rect width="1920" height="1080" x="0" y="0" fill="#0e2a47"></rect>
        <path d="M128.45 -50.76L245.37 16.74L245.37 151.74L128.45 219.24L11.53 151.74L11.53 16.74zM128.45 354.24L245.37 421.74L245.37 556.74L128.45 624.24L11.53 556.74L11.53 421.74zM128.45 759.24L245.37 826.74L245.37 961.74L128.45 1029.24L11.53 961.74L11.53 826.74zM362.28 -50.76L479.2 16.74L479.2 151.74L362.28 219.24L245.37 151.74L245.37 16.74zM479.2 151.74L596.12 219.24L596.12 354.24L479.2 421.74L362.28 354.24L362.28 219.24zM362.28 354.24L479.2 421.74L479.2 556.74L362.28 624.24L245.37 556.74L245.37 421.74zM479.2 556.74L596.12 624.24L596.12 759.24L479.2 826.74L362.28 759.24L362.28 624.24zM479.2 961.74L596.12 1029.24L596.12 1164.24L479.2 1231.74L362.28 1164.24L362.28 1029.24zM596.12 -50.76L713.03 16.74L713.03 151.74L596.12 219.24L479.2 151.74L479.2 16.74zM596.12 354.24L713.03 421.74L713.03 556.74L596.12 624.24L479.2 556.74L479.2 421.74zM713.03 961.74L829.95 1029.24L829.95 1164.24L713.03 1231.74L596.12 1164.24L596.12 1029.24zM829.95 -50.76L946.87 16.74L946.87 151.74L829.95 219.24L713.03 151.74L713.03 16.74zM946.87 151.74L1063.78 219.24L1063.78 354.24L946.87 421.74L829.95 354.24L829.95 219.24zM1063.78 354.24L1180.7 421.74L1180.7 556.74L1063.78 624.24L946.87 556.74L946.87 421.74zM1180.7 961.74L1297.62 1029.24L1297.62 1164.24L1180.7 1231.74L1063.78 1164.24L1063.78 1029.24zM1297.62 -50.76L1414.53 16.74L1414.53 151.74L1297.62 219.24L1180.7 151.74L1180.7 16.74zM1414.53 151.74L1531.45 219.24L1531.45 354.24L1414.53 421.74L1297.62 354.24L1297.62 219.24zM1297.62 759.24L1414.53 826.74L1414.53 961.74L1297.62 1029.24L1180.7 961.74L1180.7 826.74zM1648.37 151.74L1765.28 219.24L1765.28 354.24L1648.37 421.74L1531.45 354.24L1531.45 219.24zM1648.37 556.74L1765.28 624.24L1765.28 759.24L1648.37 826.74L1531.45 759.24L1531.45 624.24zM1882.2 151.74L1999.12 219.24L1999.12 354.24L1882.2 421.74L1765.28 354.24L1765.28 219.24zM1882.2 556.74L1999.12 624.24L1999.12 759.24L1882.2 826.74L1765.28 759.24L1765.28 624.24zM2116.03 151.74L2232.95 219.24L2232.95 354.24L2116.03 421.74L1999.12 354.24L1999.12 219.24zM1999.12 759.24L2116.03 826.74L2116.03 961.74L1999.12 1029.24L1882.2 961.74L1882.2 826.74z" stroke="rgba(228, 125, 42, 1)" stroke-width="1"></path>
        <path d="M0 -82L71.02 -41L71.02 41L0 82L-71.02 41L-71.02 -41zM71.02 41L142.03 82L142.03 164L71.02 205L0 164L0 82zM0 164L71.02 205L71.02 287L0 328L-71.02 287L-71.02 205zM71.02 287L142.03 328L142.03 410L71.02 451L0 410L0 328zM0 410L71.02 451L71.02 533L0 574L-71.02 533L-71.02 451zM71.02 533L142.03 574L142.03 656L71.02 697L0 656L0 574zM0 656L71.02 697L71.02 779L0 820L-71.02 779L-71.02 697zM71.02 779L142.03 820L142.03 902L71.02 943L0 902L0 820zM0 902L71.02 943L71.02 1025L0 1066L-71.02 1025L-71.02 943zM71.02 1025L142.03 1066L142.03 1148L71.02 1189L0 1148L0 1066zM142.03 -82L213.05 -41L213.05 41L142.03 82L71.02 41L71.02 -41zM213.05 41L284.06 82L284.06 164L213.05 205L142.03 164L142.03 82zM142.03 164L213.05 205L213.05 287L142.03 328L71.02 287L71.02 205zM213.05 287L284.06 328L284.06 410L213.05 451L142.03 410L142.03 328zM142.03 410L213.05 451L213.05 533L142.03 574L71.02 533L71.02 451zM213.05 533L284.06 574L284.06 656L213.05 697L142.03 656L142.03 574zM142.03 656L213.05 697L213.05 779L142.03 820L71.02 779L71.02 697zM213.05 779L284.06 820L284.06 902L213.05 943L142.03 902L142.03 820zM142.03 902L213.05 943L213.05 1025L142.03 1066L71.02 1025L71.02 943zM213.05 1025L284.06 1066L284.06 1148L213.05 1189L142.03 1148L142.03 1066zM284.06 -82L355.08 -41L355.08 41L284.06 82L213.05 41L213.05 -41zM355.08 41L426.1 82L426.1 164L355.08 205L284.06 164L284.06 82zM284.06 164L355.08 205L355.08 287L284.06 328L213.05 287L213.05 205zM355.08 287L426.1 328L426.1 410L355.08 451L284.06 410L284.06 328zM284.06 410L355.08 451L355.08 533L284.06 574L213.05 533L213.05 451zM355.08 533L426.1 574L426.1 656L355.08 697L284.06 656L284.06 574zM284.06 656L355.08 697L355.08 779L284.06 820L213.05 779L213.05 697zM355.08 779L426.1 820L426.1 902L355.08 943L284.06 902L284.06 820zM284.06 902L355.08 943L355.08 1025L284.06 1066L213.05 1025L213.05 943zM355.08 1025L426.1 1066L426.1 1148L355.08 1189L284.06 1148L284.06 1066zM426.1 -82L497.11 -41L497.11 41L426.1 82L355.08 41L355.08 -41zM497.11 41L568.13 82L568.13 164L497.11 205L426.1 164L426.1 82zM426.1 164L497.11 205L497.11 287L426.1 328L355.08 287L355.08 205zM497.11 287L568.13 328L568.13 410L497.11 451L426.1 410L426.1 328zM426.1 410L497.11 451L497.11 533L426.1 574L355.08 533L355.08 451zM497.11 533L568.13 574L568.13 656L497.11 697L426.1 656L426.1 574zM426.1 656L497.11 697L497.11 779L426.1 820L355.08 779L355.08 697zM497.11 779L568.13 820L568.13 902L497.11 943L426.1 902L426.1 820zM426.1 902L497.11 943L497.11 1025L426.1 1066L355.08 1025L355.08 943zM497.11 1025L568.13 1066L568.13 1148L497.11 1189L426.1 1148L426.1 1066zM568.13 -82L639.14 -41L639.14 41L568.13 82L497.11 41L497.11 -41zM639.14 41L710.16 82L710.16 164L639.14 205L568.13 164L568.13 82zM568.13 164L639.14 205L639.14 287L568.13 328L497.11 287L497.11 205zM639.14 287L710.16 328L710.16 410L639.14 451L568.13 410L568.13 328zM568.13 410L639.14 451L639.14 533L568.13 574L497.11 533L497.11 451zM639.14 533L710.16 574L710.16 656L639.14 697L568.13 656L568.13 574zM568.13 656L639.14 697L639.14 779L568.13 820L497.11 779L497.11 697zM639.14 779L710.16 820L710.16 902L639.14 943L568.13 902L568.13 820zM568.13 902L639.14 943L639.14 1025L568.13 1066L497.11 1025L497.11 943zM639.14 1025L710.16 1066L710.16 1148L639.14 1189L568.13 1148L568.13 1066zM710.16 -82L781.18 -41L781.18 41L710.16 82L639.14 41L639.14 -41zM781.18 41L852.19 82L852.19 164L781.18 205L710.16 164L710.16 82zM710.16 164L781.18 205L781.18 287L710.16 328L639.14 287L639.14 205zM781.18 287L852.19 328L852.19 410L781.18 451L710.16 410L710.16 328zM710.16 410L781.18 451L781.18 533L710.16 574L639.14 533L639.14 451zM781.18 533L852.19 574L852.19 656L781.18 697L710.16 656L710.16 574zM710.16 656L781.18 697L781.18 779L710.16 820L639.14 779L639.14 697zM781.18 779L852.19 820L852.19 902L781.18 943L710.16 902L710.16 820zM710.16 902L781.18 943L781.18 1025L710.16 1066L639.14 1025L639.14 943zM781.18 1025L852.19 1066L852.19 1148L781.18 1189L710.16 1148L710.16 1066zM852.19 -82L923.21 -41L923.21 41L852.19 82L781.18 41L781.18 -41zM923.21 41L994.23 82L994.23 164L923.21 205L852.19 164L852.19 82zM852.19 164L923.21 205L923.21 287L852.19 328L781.18 287L781.18 205zM923.21 287L994.23 328L994.23 410L923.21 451L852.19 410L852.19 328zM852.19 410L923.21 451L923.21 533L852.19 574L781.18 533L781.18 451zM923.21 533L994.23 574L994.23 656L923.21 697L852.19 656L852.19 574zM852.19 656L923.21 697L923.21 779L852.19 820L781.18 779L781.18 697zM923.21 779L994.23 820L994.23 902L923.21 943L852.19 902L852.19 820zM852.19 902L923.21 943L923.21 1025L852.19 1066L781.18 1025L781.18 943zM923.21 1025L994.23 1066L994.23 1148L923.21 1189L852.19 1148L852.19 1066zM994.23 -82L1065.24 -41L1065.24 41L994.23 82L923.21 41L923.21 -41zM1065.24 41L1136.26 82L1136.26 164L1065.24 205L994.23 164L994.23 82zM994.23 164L1065.24 205L1065.24 287L994.23 328L923.21 287L923.21 205zM1065.24 287L1136.26 328L1136.26 410L1065.24 451L994.23 410L994.23 328zM994.23 410L1065.24 451L1065.24 533L994.23 574L923.21 533L923.21 451zM1065.24 533L1136.26 574L1136.26 656L1065.24 697L994.23 656L994.23 574zM994.23 656L1065.24 697L1065.24 779L994.23 820L923.21 779L923.21 697zM1065.24 779L1136.26 820L1136.26 902L1065.24 943L994.23 902L994.23 820zM994.23 902L1065.24 943L1065.24 1025L994.23 1066L923.21 1025L923.21 943zM1065.24 1025L1136.26 1066L1136.26 1148L1065.24 1189L994.23 1148L994.23 1066zM1136.26 -82L1207.27 -41L1207.27 41L1136.26 82L1065.24 41L1065.24 -41zM1207.27 41L1278.29 82L1278.29 164L1207.27 205L1136.26 164L1136.26 82zM1136.26 164L1207.27 205L1207.27 287L1136.26 328L1065.24 287L1065.24 205zM1207.27 287L1278.29 328L1278.29 410L1207.27 451L1136.26 410L1136.26 328zM1136.26 410L1207.27 451L1207.27 533L1136.26 574L1065.24 533L1065.24 451zM1207.27 533L1278.29 574L1278.29 656L1207.27 697L1136.26 656L1136.26 574zM1136.26 656L1207.27 697L1207.27 779L1136.26 820L1065.24 779L1065.24 697zM1207.27 779L1278.29 820L1278.29 902L1207.27 943L1136.26 902L1136.26 820zM1136.26 902L1207.27 943L1207.27 1025L1136.26 1066L1065.24 1025L1065.24 943zM1207.27 1025L1278.29 1066L1278.29 1148L1207.27 1189L1136.26 1148L1136.26 1066zM1278.29 -82L1349.31 -41L1349.31 41L1278.29 82L1207.27 41L1207.27 -41zM1349.31 41L1420.32 82L1420.32 164L1349.31 205L1278.29 164L1278.29 82zM1278.29 164L1349.31 205L1349.31 287L1278.29 328L1207.27 287L1207.27 205zM1349.31 287L1420.32 328L1420.32 410L1349.31 451L1278.29 410L1278.29 328zM1278.29 410L1349.31 451L1349.31 533L1278.29 574L1207.27 533L1207.27 451zM1349.31 533L1420.32 574L1420.32 656L1349.31 697L1278.29 656L1278.29 574zM1278.29 656L1349.31 697L1349.31 779L1278.29 820L1207.27 779L1207.27 697zM1349.31 779L1420.32 820L1420.32 902L1349.31 943L1278.29 902L1278.29 820zM1278.29 902L1349.31 943L1349.31 1025L1278.29 1066L1207.27 1025L1207.27 943zM1349.31 1025L1420.32 1066L1420.32 1148L1349.31 1189L1278.29 1148L1278.29 1066zM1420.32 -82L1491.34 -41L1491.34 41L1420.32 82L1349.31 41L1349.31 -41zM1491.34 41L1562.35 82L1562.35 164L1491.34 205L1420.32 164L1420.32 82zM1420.32 164L1491.34 205L1491.34 287L1420.32 328L1349.31 287L1349.31 205zM1491.34 287L1562.35 328L1562.35 410L1491.34 451L1420.32 410L1420.32 328zM1420.32 410L1491.34 451L1491.34 533L1420.32 574L1349.31 533L1349.31 451zM1491.34 533L1562.35 574L1562.35 656L1491.34 697L1420.32 656L1420.32 574zM1420.32 656L1491.34 697L1491.34 779L1420.32 820L1349.31 779L1349.31 697zM1491.34 779L1562.35 820L1562.35 902L1491.34 943L1420.32 902L1420.32 820zM1420.32 902L1491.34 943L1491.34 1025L1420.32 1066L1349.31 1025L1349.31 943zM1491.34 1025L1562.35 1066L1562.35 1148L1491.34 1189L1420.32 1148L1420.32 1066zM1562.35 -82L1633.37 -41L1633.37 41L1562.35 82L1491.34 41L1491.34 -41zM1633.37 41L1704.39 82L1704.39 164L1633.37 205L1562.35 164L1562.35 82zM1562.35 164L1633.37 205L1633.37 287L1562.35 328L1491.34 287L1491.34 205zM1633.37 287L1704.39 328L1704.39 410L1633.37 451L1562.35 410L1562.35 328zM1562.35 410L1633.37 451L1633.37 533L1562.35 574L1491.34 533L1491.34 451zM1633.37 533L1704.39 574L1704.39 656L1633.37 697L1562.35 656L1562.35 574zM1562.35 656L1633.37 697L1633.37 779L1562.35 820L1491.34 779L1491.34 697zM1633.37 779L1704.39 820L1704.39 902L1633.37 943L1562.35 902L1562.35 820zM1562.35 902L1633.37 943L1633.37 1025L1562.35 1066L1491.34 1025L1491.34 943zM1633.37 1025L1704.39 1066L1704.39 1148L1633.37 1189L1562.35 1148L1562.35 1066zM1704.39 -82L1775.4 -41L1775.4 41L1704.39 82L1633.37 41L1633.37 -41zM1775.4 41L1846.42 82L1846.42 164L1775.4 205L1704.39 164L1704.39 82zM1704.39 164L1775.4 205L1775.4 287L1704.39 328L1633.37 287L1633.37 205zM1775.4 287L1846.42 328L1846.42 410L1775.4 451L1704.39 410L1704.39 328zM1704.39 410L1775.4 451L1775.4 533L1704.39 574L1633.37 533L1633.37 451zM1775.4 533L1846.42 574L1846.42 656L1775.4 697L1704.39 656L1704.39 574zM1704.39 656L1775.4 697L1775.4 779L1704.39 820L1633.37 779L1633.37 697zM1775.4 779L1846.42 820L1846.42 902L1775.4 943L1704.39 902L1704.39 820zM1704.39 902L1775.4 943L1775.4 1025L1704.39 1066L1633.37 1025L1633.37 943zM1775.4 1025L1846.42 1066L1846.42 1148L1775.4 1189L1704.39 1148L1704.39 1066zM1846.42 -82L1917.43 -41L1917.43 41L1846.42 82L1775.4 41L1775.4 -41zM1917.43 41L1988.45 82L1988.45 164L1917.43 205L1846.42 164L1846.42 82zM1846.42 164L1917.43 205L1917.43 287L1846.42 328L1775.4 287L1775.4 205zM1917.43 287L1988.45 328L1988.45 410L1917.43 451L1846.42 410L1846.42 328zM1846.42 410L1917.43 451L1917.43 533L1846.42 574L1775.4 533L1775.4 451zM1917.43 533L1988.45 574L1988.45 656L1917.43 697L1846.42 656L1846.42 574zM1846.42 656L1917.43 697L1917.43 779L1846.42 820L1775.4 779L1775.4 697zM1917.43 779L1988.45 820L1988.45 902L1917.43 943L1846.42 902L1846.42 820zM1846.42 902L1917.43 943L1917.43 1025L1846.42 1066L1775.4 1025L1775.4 943zM1917.43 1025L1988.45 1066L1988.45 1148L1917.43 1189L1846.42 1148L1846.42 1066z" stroke="#03305d" stroke-width="2"></path>
        <path d="M-8.2 -82 a8.2 8.2 0 1 0 16.4 0 a8.2 8.2 0 1 0 -16.4 0zM62.82 -41 a8.2 8.2 0 1 0 16.4 0 a8.2 8.2 0 1 0 -16.4 0zM62.82 41 a8.2 8.2 0 1 0 16.4 0 a8.2 8.2 0 1 0 -16.4 0zM-8.2 82 a8.2 8.2 0 1 0 16.4 0 a8.2 8.2 0 1 0 -16.4 0zM-79.22 41 a8.2 8.2 0 1 0 16.4 0 a8.2 8.2 0 1 0 -16.4 0zM-79.22 -41 a8.2 8.2 0 1 0 16.4 0 a8.2 8.2 0 1 0 -16.4 0zM133.83 82 a8.2 8.2 0 1 0 16.4 0 a8.2 8.2 0 1 0 -16.4 0zM133.83 164 a8.2 8.2 0 1 0 16.4 0 a8.2 8.2 0 1 0 -16.4 0zM62.82 205 a8.2 8.2 0 1 0 16.4 0 a8.2 8.2 0 1 0 -16.4 0zM-8.2 164 a8.2 8.2 0 1 0 16.4 0 a8.2 8.2 0 1 0 -16.4 0zM62.82 287 a8.2 8.2 0 1 0 16.4 0 a8.2 8.2 0 1 0 -16.4 0zM-8.2 328 a8.2 8.2 0 1 0 16.4 0 a8.2 8.2 0 1 0 -16.4 0zM-79.22 287 a8.2 8.2 0 1 0 16.4 0 a8.2 8.2 0 1 0 -16.4 0zM-79.22 205 a8.2 8.2 0 1 0 16.4 0 a8.2 8.2 0 1 0 -16.4 0zM133.83 328 a8.2 8.2 0 1 0 16.4 0 a8.2 8.2 0 1 0 -16.4 0zM133.83 410 a8.2 8.2 0 1 0 16.4 0 a8.2 8.2 0 1 0 -16.4 0zM62.82 451 a8.2 8.2 0 1 0 16.4 0 a8.2 8.2 0 1 0 -16.4 0zM-8.2 410 a8.2 8.2 0 1 0 16.4 0 a8.2 8.2 0 1 0 -16.4 0zM62.82 533 a8.2 8.2 0 1 0 16.4 0 a8.2 8.2 0 1 0 -16.4 0zM-8.2 574 a8.2 8.2 0 1 0 16.4 0 a8.2 8.2 0 1 0 -16.4 0zM-79.22 533 a8.2 8.2 0 1 0 16.4 0 a8.2 8.2 0 1 0 -16.4 0zM-79.22 451 a8.2 8.2 0 1 0 16.4 0 a8.2 8.2 0 1 0 -16.4 0zM133.83 574 a8.2 8.2 0 1 0 16.4 0 a8.2 8.2 0 1 0 -16.4 0zM133.83 656 a8.2 8.2 0 1 0 16.4 0 a8.2 8.2 0 1 0 -16.4 0zM62.82 697 a8.2 8.2 0 1 0 16.4 0 a8.2 8.2 0 1 0 -16.4 0zM-8.2 656 a8.2 8.2 0 1 0 16.4 0 a8.2 8.2 0 1 0 -16.4 0zM62.82 779 a8.2 8.2 0 1 0 16.4 0 a8.2 8.2 0 1 0 -16.4 0zM-8.2 820 a8.2 8.2 0 1 0 16.4 0 a8.2 8.2 0 1 0 -16.4 0zM-79.22 779 a8.2 8.2 0 1 0 16.4 0 a8.2 8.2 0 1 0 -16.4 0zM-79.22 697 a8.2 8.2 0 1 0 16.4 0 a8.2 8.2 0 1 0 -16.4 0zM133.83 820 a8.2 8.2 0 1 0 16.4 0 a8.2 8.2 0 1 0 -16.4 0zM133.83 902 a8.2 8.2 0 1 0 16.4 0 a8.2 8.2 0 1 0 -16.4 0zM62.82 943 a8.2 8.2 0 1 0 16.4 0 a8.2 8.2 0 1 0 -16.4 0zM-8.2 902 a8.2 8.2 0 1 0 16.4 0 a8.2 8.2 0 1 0 -16.4 0zM62.82 1025 a8.2 8.2 0 1 0 16.4 0 a8.2 8.2 0 1 0 -16.4 0zM-8.2 1066 a8.2 8.2 0 1 0 16.4 0 a8.2 8.2 0 1 0 -16.4 0zM-79.22 1025 a8.2 8.2 0 1 0 16.4 0 a8.2 8.2 0 1 0 -16.4 0zM-79.22 943 a8.2 8.2 0 1 0 16.4 0 a8.2 8.2 0 1 0 -16.4 0zM133.83 1066 a8.2 8.2 0 1 0 16.4 0 a8.2 8.2 0 1 0 -16.4 0zM133.83 1148 a8.2 8.2 0 1 0 16.4 0 a8.2 8.2 0 1 0 -16.4 0zM62.82 1189 a8.2 8.2 0 1 0 16.4 0 a8.2 8.2 0 1 0 -16.4 0zM-8.2 1148 a8.2 8.2 0 1 0 16.4 0 a8.2 8.2 0 1 0 -16.4 0zM133.83 -82 a8.2 8.2 0 1 0 16.4 0 a8.2 8.2 0 1 0 -16.4 0zM204.85 -41 a8.2 8.2 0 1 0 16.4 0 a8.2 8.2 0 1 0 -16.4 0zM204.85 41 a8.2 8.2 0 1 0 16.4 0 a8.2 8.2 0 1 0 -16.4 0zM275.86 82 a8.2 8.2 0 1 0 16.4 0 a8.2 8.2 0 1 0 -16.4 0zM275.86 164 a8.2 8.2 0 1 0 16.4 0 a8.2 8.2 0 1 0 -16.4 0zM204.85 205 a8.2 8.2 0 1 0 16.4 0 a8.2 8.2 0 1 0 -16.4 0zM204.85 287 a8.2 8.2 0 1 0 16.4 0 a8.2 8.2 0 1 0 -16.4 0zM275.86 328 a8.2 8.2 0 1 0 16.4 0 a8.2 8.2 0 1 0 -16.4 0zM275.86 410 a8.2 8.2 0 1 0 16.4 0 a8.2 8.2 0 1 0 -16.4 0zM204.85 451 a8.2 8.2 0 1 0 16.4 0 a8.2 8.2 0 1 0 -16.4 0zM204.85 533 a8.2 8.2 0 1 0 16.4 0 a8.2 8.2 0 1 0 -16.4 0zM275.86 574 a8.2 8.2 0 1 0 16.4 0 a8.2 8.2 0 1 0 -16.4 0zM275.86 656 a8.2 8.2 0 1 0 16.4 0 a8.2 8.2 0 1 0 -16.4 0zM204.85 697 a8.2 8.2 0 1 0 16.4 0 a8.2 8.2 0 1 0 -16.4 0zM204.85 779 a8.2 8.2 0 1 0 16.4 0 a8.2 8.2 0 1 0 -16.4 0zM275.86 820 a8.2 8.2 0 1 0 16.4 0 a8.2 8.2 0 1 0 -16.4 0zM275.86 902 a8.2 8.2 0 1 0 16.4 0 a8.2 8.2 0 1 0 -16.4 0zM204.85 943 a8.2 8.2 0 1 0 16.4 0 a8.2 8.2 0 1 0 -16.4 0zM204.85 1025 a8.2 8.2 0 1 0 16.4 0 a8.2 8.2 0 1 0 -16.4 0zM275.86 1066 a8.2 8.2 0 1 0 16.4 0 a8.2 8.2 0 1 0 -16.4 0zM275.86 1148 a8.2 8.2 0 1 0 16.4 0 a8.2 8.2 0 1 0 -16.4 0zM204.85 1189 a8.2 8.2 0 1 0 16.4 0 a8.2 8.2 0 1 0 -16.4 0zM275.86 -82 a8.2 8.2 0 1 0 16.4 0 a8.2 8.2 0 1 0 -16.4 0zM346.88 -41 a8.2 8.2 0 1 0 16.4 0 a8.2 8.2 0 1 0 -16.4 0zM346.88 41 a8.2 8.2 0 1 0 16.4 0 a8.2 8.2 0 1 0 -16.4 0zM417.9 82 a8.2 8.2 0 1 0 16.4 0 a8.2 8.2 0 1 0 -16.4 0zM417.9 164 a8.2 8.2 0 1 0 16.4 0 a8.2 8.2 0 1 0 -16.4 0zM346.88 205 a8.2 8.2 0 1 0 16.4 0 a8.2 8.2 0 1 0 -16.4 0zM346.88 287 a8.2 8.2 0 1 0 16.4 0 a8.2 8.2 0 1 0 -16.4 0zM417.9 328 a8.2 8.2 0 1 0 16.4 0 a8.2 8.2 0 1 0 -16.4 0zM417.9 410 a8.2 8.2 0 1 0 16.4 0 a8.2 8.2 0 1 0 -16.4 0zM346.88 451 a8.2 8.2 0 1 0 16.4 0 a8.2 8.2 0 1 0 -16.4 0zM346.88 533 a8.2 8.2 0 1 0 16.4 0 a8.2 8.2 0 1 0 -16.4 0zM417.9 574 a8.2 8.2 0 1 0 16.4 0 a8.2 8.2 0 1 0 -16.4 0zM417.9 656 a8.2 8.2 0 1 0 16.4 0 a8.2 8.2 0 1 0 -16.4 0zM346.88 697 a8.2 8.2 0 1 0 16.4 0 a8.2 8.2 0 1 0 -16.4 0zM346.88 779 a8.2 8.2 0 1 0 16.4 0 a8.2 8.2 0 1 0 -16.4 0zM417.9 820 a8.2 8.2 0 1 0 16.4 0 a8.2 8.2 0 1 0 -16.4 0zM417.9 902 a8.2 8.2 0 1 0 16.4 0 a8.2 8.2 0 1 0 -16.4 0zM346.88 943 a8.2 8.2 0 1 0 16.4 0 a8.2 8.2 0 1 0 -16.4 0zM346.88 1025 a8.2 8.2 0 1 0 16.4 0 a8.2 8.2 0 1 0 -16.4 0zM417.9 1066 a8.2 8.2 0 1 0 16.4 0 a8.2 8.2 0 1 0 -16.4 0zM417.9 1148 a8.2 8.2 0 1 0 16.4 0 a8.2 8.2 0 1 0 -16.4 0zM346.88 1189 a8.2 8.2 0 1 0 16.4 0 a8.2 8.2 0 1 0 -16.4 0zM417.9 -82 a8.2 8.2 0 1 0 16.4 0 a8.2 8.2 0 1 0 -16.4 0zM488.91 -41 a8.2 8.2 0 1 0 16.4 0 a8.2 8.2 0 1 0 -16.4 0zM488.91 41 a8.2 8.2 0 1 0 16.4 0 a8.2 8.2 0 1 0 -16.4 0zM559.93 82 a8.2 8.2 0 1 0 16.4 0 a8.2 8.2 0 1 0 -16.4 0zM559.93 164 a8.2 8.2 0 1 0 16.4 0 a8.2 8.2 0 1 0 -16.4 0zM488.91 205 a8.2 8.2 0 1 0 16.4 0 a8.2 8.2 0 1 0 -16.4 0zM488.91 287 a8.2 8.2 0 1 0 16.4 0 a8.2 8.2 0 1 0 -16.4 0zM559.93 328 a8.2 8.2 0 1 0 16.4 0 a8.2 8.2 0 1 0 -16.4 0zM559.93 410 a8.2 8.2 0 1 0 16.4 0 a8.2 8.2 0 1 0 -16.4 0zM488.91 451 a8.2 8.2 0 1 0 16.4 0 a8.2 8.2 0 1 0 -16.4 0zM488.91 533 a8.2 8.2 0 1 0 16.4 0 a8.2 8.2 0 1 0 -16.4 0zM559.93 574 a8.2 8.2 0 1 0 16.4 0 a8.2 8.2 0 1 0 -16.4 0zM559.93 656 a8.2 8.2 0 1 0 16.4 0 a8.2 8.2 0 1 0 -16.4 0zM488.91 697 a8.2 8.2 0 1 0 16.4 0 a8.2 8.2 0 1 0 -16.4 0zM488.91 779 a8.2 8.2 0 1 0 16.4 0 a8.2 8.2 0 1 0 -16.4 0zM559.93 820 a8.2 8.2 0 1 0 16.4 0 a8.2 8.2 0 1 0 -16.4 0zM559.93 902 a8.2 8.2 0 1 0 16.4 0 a8.2 8.2 0 1 0 -16.4 0zM488.91 943 a8.2 8.2 0 1 0 16.4 0 a8.2 8.2 0 1 0 -16.4 0zM488.91 1025 a8.2 8.2 0 1 0 16.4 0 a8.2 8.2 0 1 0 -16.4 0zM559.93 1066 a8.2 8.2 0 1 0 16.4 0 a8.2 8.2 0 1 0 -16.4 0zM559.93 1148 a8.2 8.2 0 1 0 16.4 0 a8.2 8.2 0 1 0 -16.4 0zM488.91 1189 a8.2 8.2 0 1 0 16.4 0 a8.2 8.2 0 1 0 -16.4 0zM559.93 -82 a8.2 8.2 0 1 0 16.4 0 a8.2 8.2 0 1 0 -16.4 0zM630.94 -41 a8.2 8.2 0 1 0 16.4 0 a8.2 8.2 0 1 0 -16.4 0zM630.94 41 a8.2 8.2 0 1 0 16.4 0 a8.2 8.2 0 1 0 -16.4 0zM701.96 82 a8.2 8.2 0 1 0 16.4 0 a8.2 8.2 0 1 0 -16.4 0zM701.96 164 a8.2 8.2 0 1 0 16.4 0 a8.2 8.2 0 1 0 -16.4 0zM630.94 205 a8.2 8.2 0 1 0 16.4 0 a8.2 8.2 0 1 0 -16.4 0zM630.94 287 a8.2 8.2 0 1 0 16.4 0 a8.2 8.2 0 1 0 -16.4 0zM701.96 328 a8.2 8.2 0 1 0 16.4 0 a8.2 8.2 0 1 0 -16.4 0zM701.96 410 a8.2 8.2 0 1 0 16.4 0 a8.2 8.2 0 1 0 -16.4 0zM630.94 451 a8.2 8.2 0 1 0 16.4 0 a8.2 8.2 0 1 0 -16.4 0zM630.94 533 a8.2 8.2 0 1 0 16.4 0 a8.2 8.2 0 1 0 -16.4 0zM701.96 574 a8.2 8.2 0 1 0 16.4 0 a8.2 8.2 0 1 0 -16.4 0zM701.96 656 a8.2 8.2 0 1 0 16.4 0 a8.2 8.2 0 1 0 -16.4 0zM630.94 697 a8.2 8.2 0 1 0 16.4 0 a8.2 8.2 0 1 0 -16.4 0zM630.94 779 a8.2 8.2 0 1 0 16.4 0 a8.2 8.2 0 1 0 -16.4 0zM701.96 820 a8.2 8.2 0 1 0 16.4 0 a8.2 8.2 0 1 0 -16.4 0zM701.96 902 a8.2 8.2 0 1 0 16.4 0 a8.2 8.2 0 1 0 -16.4 0zM630.94 943 a8.2 8.2 0 1 0 16.4 0 a8.2 8.2 0 1 0 -16.4 0zM630.94 1025 a8.2 8.2 0 1 0 16.4 0 a8.2 8.2 0 1 0 -16.4 0zM701.96 1066 a8.2 8.2 0 1 0 16.4 0 a8.2 8.2 0 1 0 -16.4 0zM701.96 1148 a8.2 8.2 0 1 0 16.4 0 a8.2 8.2 0 1 0 -16.4 0zM630.94 1189 a8.2 8.2 0 1 0 16.4 0 a8.2 8.2 0 1 0 -16.4 0zM701.96 -82 a8.2 8.2 0 1 0 16.4 0 a8.2 8.2 0 1 0 -16.4 0zM772.98 -41 a8.2 8.2 0 1 0 16.4 0 a8.2 8.2 0 1 0 -16.4 0zM772.98 41 a8.2 8.2 0 1 0 16.4 0 a8.2 8.2 0 1 0 -16.4 0zM843.99 82 a8.2 8.2 0 1 0 16.4 0 a8.2 8.2 0 1 0 -16.4 0zM843.99 164 a8.2 8.2 0 1 0 16.4 0 a8.2 8.2 0 1 0 -16.4 0zM772.98 205 a8.2 8.2 0 1 0 16.4 0 a8.2 8.2 0 1 0 -16.4 0zM772.98 287 a8.2 8.2 0 1 0 16.4 0 a8.2 8.2 0 1 0 -16.4 0zM843.99 328 a8.2 8.2 0 1 0 16.4 0 a8.2 8.2 0 1 0 -16.4 0zM843.99 410 a8.2 8.2 0 1 0 16.4 0 a8.2 8.2 0 1 0 -16.4 0zM772.98 451 a8.2 8.2 0 1 0 16.4 0 a8.2 8.2 0 1 0 -16.4 0zM772.98 533 a8.2 8.2 0 1 0 16.4 0 a8.2 8.2 0 1 0 -16.4 0zM843.99 574 a8.2 8.2 0 1 0 16.4 0 a8.2 8.2 0 1 0 -16.4 0zM843.99 656 a8.2 8.2 0 1 0 16.4 0 a8.2 8.2 0 1 0 -16.4 0zM772.98 697 a8.2 8.2 0 1 0 16.4 0 a8.2 8.2 0 1 0 -16.4 0zM772.98 779 a8.2 8.2 0 1 0 16.4 0 a8.2 8.2 0 1 0 -16.4 0zM843.99 820 a8.2 8.2 0 1 0 16.4 0 a8.2 8.2 0 1 0 -16.4 0zM843.99 902 a8.2 8.2 0 1 0 16.4 0 a8.2 8.2 0 1 0 -16.4 0zM772.98 943 a8.2 8.2 0 1 0 16.4 0 a8.2 8.2 0 1 0 -16.4 0zM772.98 1025 a8.2 8.2 0 1 0 16.4 0 a8.2 8.2 0 1 0 -16.4 0zM843.99 1066 a8.2 8.2 0 1 0 16.4 0 a8.2 8.2 0 1 0 -16.4 0zM843.99 1148 a8.2 8.2 0 1 0 16.4 0 a8.2 8.2 0 1 0 -16.4 0zM772.98 1189 a8.2 8.2 0 1 0 16.4 0 a8.2 8.2 0 1 0 -16.4 0zM843.99 -82 a8.2 8.2 0 1 0 16.4 0 a8.2 8.2 0 1 0 -16.4 0zM915.01 -41 a8.2 8.2 0 1 0 16.4 0 a8.2 8.2 0 1 0 -16.4 0zM915.01 41 a8.2 8.2 0 1 0 16.4 0 a8.2 8.2 0 1 0 -16.4 0zM986.03 82 a8.2 8.2 0 1 0 16.4 0 a8.2 8.2 0 1 0 -16.4 0zM986.03 164 a8.2 8.2 0 1 0 16.4 0 a8.2 8.2 0 1 0 -16.4 0zM915.01 205 a8.2 8.2 0 1 0 16.4 0 a8.2 8.2 0 1 0 -16.4 0zM915.01 287 a8.2 8.2 0 1 0 16.4 0 a8.2 8.2 0 1 0 -16.4 0zM986.03 328 a8.2 8.2 0 1 0 16.4 0 a8.2 8.2 0 1 0 -16.4 0zM986.03 410 a8.2 8.2 0 1 0 16.4 0 a8.2 8.2 0 1 0 -16.4 0zM915.01 451 a8.2 8.2 0 1 0 16.4 0 a8.2 8.2 0 1 0 -16.4 0zM915.01 533 a8.2 8.2 0 1 0 16.4 0 a8.2 8.2 0 1 0 -16.4 0zM986.03 574 a8.2 8.2 0 1 0 16.4 0 a8.2 8.2 0 1 0 -16.4 0zM986.03 656 a8.2 8.2 0 1 0 16.4 0 a8.2 8.2 0 1 0 -16.4 0zM915.01 697 a8.2 8.2 0 1 0 16.4 0 a8.2 8.2 0 1 0 -16.4 0zM915.01 779 a8.2 8.2 0 1 0 16.4 0 a8.2 8.2 0 1 0 -16.4 0zM986.03 820 a8.2 8.2 0 1 0 16.4 0 a8.2 8.2 0 1 0 -16.4 0zM986.03 902 a8.2 8.2 0 1 0 16.4 0 a8.2 8.2 0 1 0 -16.4 0zM915.01 943 a8.2 8.2 0 1 0 16.4 0 a8.2 8.2 0 1 0 -16.4 0zM915.01 1025 a8.2 8.2 0 1 0 16.4 0 a8.2 8.2 0 1 0 -16.4 0zM986.03 1066 a8.2 8.2 0 1 0 16.4 0 a8.2 8.2 0 1 0 -16.4 0zM986.03 1148 a8.2 8.2 0 1 0 16.4 0 a8.2 8.2 0 1 0 -16.4 0zM915.01 1189 a8.2 8.2 0 1 0 16.4 0 a8.2 8.2 0 1 0 -16.4 0zM986.03 -82 a8.2 8.2 0 1 0 16.4 0 a8.2 8.2 0 1 0 -16.4 0zM1057.04 -41 a8.2 8.2 0 1 0 16.4 0 a8.2 8.2 0 1 0 -16.4 0zM1057.04 41 a8.2 8.2 0 1 0 16.4 0 a8.2 8.2 0 1 0 -16.4 0zM1128.06 82 a8.2 8.2 0 1 0 16.4 0 a8.2 8.2 0 1 0 -16.4 0zM1128.06 164 a8.2 8.2 0 1 0 16.4 0 a8.2 8.2 0 1 0 -16.4 0zM1057.04 205 a8.2 8.2 0 1 0 16.4 0 a8.2 8.2 0 1 0 -16.4 0zM1057.04 287 a8.2 8.2 0 1 0 16.4 0 a8.2 8.2 0 1 0 -16.4 0zM1128.06 328 a8.2 8.2 0 1 0 16.4 0 a8.2 8.2 0 1 0 -16.4 0zM1128.06 410 a8.2 8.2 0 1 0 16.4 0 a8.2 8.2 0 1 0 -16.4 0zM1057.04 451 a8.2 8.2 0 1 0 16.4 0 a8.2 8.2 0 1 0 -16.4 0zM1057.04 533 a8.2 8.2 0 1 0 16.4 0 a8.2 8.2 0 1 0 -16.4 0zM1128.06 574 a8.2 8.2 0 1 0 16.4 0 a8.2 8.2 0 1 0 -16.4 0zM1128.06 656 a8.2 8.2 0 1 0 16.4 0 a8.2 8.2 0 1 0 -16.4 0zM1057.04 697 a8.2 8.2 0 1 0 16.4 0 a8.2 8.2 0 1 0 -16.4 0zM1057.04 779 a8.2 8.2 0 1 0 16.4 0 a8.2 8.2 0 1 0 -16.4 0zM1128.06 820 a8.2 8.2 0 1 0 16.4 0 a8.2 8.2 0 1 0 -16.4 0zM1128.06 902 a8.2 8.2 0 1 0 16.4 0 a8.2 8.2 0 1 0 -16.4 0zM1057.04 943 a8.2 8.2 0 1 0 16.4 0 a8.2 8.2 0 1 0 -16.4 0zM1057.04 1025 a8.2 8.2 0 1 0 16.4 0 a8.2 8.2 0 1 0 -16.4 0zM1128.06 1066 a8.2 8.2 0 1 0 16.4 0 a8.2 8.2 0 1 0 -16.4 0zM1128.06 1148 a8.2 8.2 0 1 0 16.4 0 a8.2 8.2 0 1 0 -16.4 0zM1057.04 1189 a8.2 8.2 0 1 0 16.4 0 a8.2 8.2 0 1 0 -16.4 0zM1128.06 -82 a8.2 8.2 0 1 0 16.4 0 a8.2 8.2 0 1 0 -16.4 0zM1199.07 -41 a8.2 8.2 0 1 0 16.4 0 a8.2 8.2 0 1 0 -16.4 0zM1199.07 41 a8.2 8.2 0 1 0 16.4 0 a8.2 8.2 0 1 0 -16.4 0zM1270.09 82 a8.2 8.2 0 1 0 16.4 0 a8.2 8.2 0 1 0 -16.4 0zM1270.09 164 a8.2 8.2 0 1 0 16.4 0 a8.2 8.2 0 1 0 -16.4 0zM1199.07 205 a8.2 8.2 0 1 0 16.4 0 a8.2 8.2 0 1 0 -16.4 0zM1199.07 287 a8.2 8.2 0 1 0 16.4 0 a8.2 8.2 0 1 0 -16.4 0zM1270.09 328 a8.2 8.2 0 1 0 16.4 0 a8.2 8.2 0 1 0 -16.4 0zM1270.09 410 a8.2 8.2 0 1 0 16.4 0 a8.2 8.2 0 1 0 -16.4 0zM1199.07 451 a8.2 8.2 0 1 0 16.4 0 a8.2 8.2 0 1 0 -16.4 0zM1199.07 533 a8.2 8.2 0 1 0 16.4 0 a8.2 8.2 0 1 0 -16.4 0zM1270.09 574 a8.2 8.2 0 1 0 16.4 0 a8.2 8.2 0 1 0 -16.4 0zM1270.09 656 a8.2 8.2 0 1 0 16.4 0 a8.2 8.2 0 1 0 -16.4 0zM1199.07 697 a8.2 8.2 0 1 0 16.4 0 a8.2 8.2 0 1 0 -16.4 0zM1199.07 779 a8.2 8.2 0 1 0 16.4 0 a8.2 8.2 0 1 0 -16.4 0zM1270.09 820 a8.2 8.2 0 1 0 16.4 0 a8.2 8.2 0 1 0 -16.4 0zM1270.09 902 a8.2 8.2 0 1 0 16.4 0 a8.2 8.2 0 1 0 -16.4 0zM1199.07 943 a8.2 8.2 0 1 0 16.4 0 a8.2 8.2 0 1 0 -16.4 0zM1199.07 1025 a8.2 8.2 0 1 0 16.4 0 a8.2 8.2 0 1 0 -16.4 0zM1270.09 1066 a8.2 8.2 0 1 0 16.4 0 a8.2 8.2 0 1 0 -16.4 0zM1270.09 1148 a8.2 8.2 0 1 0 16.4 0 a8.2 8.2 0 1 0 -16.4 0zM1199.07 1189 a8.2 8.2 0 1 0 16.4 0 a8.2 8.2 0 1 0 -16.4 0zM1270.09 -82 a8.2 8.2 0 1 0 16.4 0 a8.2 8.2 0 1 0 -16.4 0zM1341.11 -41 a8.2 8.2 0 1 0 16.4 0 a8.2 8.2 0 1 0 -16.4 0zM1341.11 41 a8.2 8.2 0 1 0 16.4 0 a8.2 8.2 0 1 0 -16.4 0zM1412.12 82 a8.2 8.2 0 1 0 16.4 0 a8.2 8.2 0 1 0 -16.4 0zM1412.12 164 a8.2 8.2 0 1 0 16.4 0 a8.2 8.2 0 1 0 -16.4 0zM1341.11 205 a8.2 8.2 0 1 0 16.4 0 a8.2 8.2 0 1 0 -16.4 0zM1341.11 287 a8.2 8.2 0 1 0 16.4 0 a8.2 8.2 0 1 0 -16.4 0zM1412.12 328 a8.2 8.2 0 1 0 16.4 0 a8.2 8.2 0 1 0 -16.4 0zM1412.12 410 a8.2 8.2 0 1 0 16.4 0 a8.2 8.2 0 1 0 -16.4 0zM1341.11 451 a8.2 8.2 0 1 0 16.4 0 a8.2 8.2 0 1 0 -16.4 0zM1341.11 533 a8.2 8.2 0 1 0 16.4 0 a8.2 8.2 0 1 0 -16.4 0zM1412.12 574 a8.2 8.2 0 1 0 16.4 0 a8.2 8.2 0 1 0 -16.4 0zM1412.12 656 a8.2 8.2 0 1 0 16.4 0 a8.2 8.2 0 1 0 -16.4 0zM1341.11 697 a8.2 8.2 0 1 0 16.4 0 a8.2 8.2 0 1 0 -16.4 0zM1341.11 779 a8.2 8.2 0 1 0 16.4 0 a8.2 8.2 0 1 0 -16.4 0zM1412.12 820 a8.2 8.2 0 1 0 16.4 0 a8.2 8.2 0 1 0 -16.4 0zM1412.12 902 a8.2 8.2 0 1 0 16.4 0 a8.2 8.2 0 1 0 -16.4 0zM1341.11 943 a8.2 8.2 0 1 0 16.4 0 a8.2 8.2 0 1 0 -16.4 0zM1341.11 1025 a8.2 8.2 0 1 0 16.4 0 a8.2 8.2 0 1 0 -16.4 0zM1412.12 1066 a8.2 8.2 0 1 0 16.4 0 a8.2 8.2 0 1 0 -16.4 0zM1412.12 1148 a8.2 8.2 0 1 0 16.4 0 a8.2 8.2 0 1 0 -16.4 0zM1341.11 1189 a8.2 8.2 0 1 0 16.4 0 a8.2 8.2 0 1 0 -16.4 0zM1412.12 -82 a8.2 8.2 0 1 0 16.4 0 a8.2 8.2 0 1 0 -16.4 0zM1483.14 -41 a8.2 8.2 0 1 0 16.4 0 a8.2 8.2 0 1 0 -16.4 0zM1483.14 41 a8.2 8.2 0 1 0 16.4 0 a8.2 8.2 0 1 0 -16.4 0zM1554.15 82 a8.2 8.2 0 1 0 16.4 0 a8.2 8.2 0 1 0 -16.4 0zM1554.15 164 a8.2 8.2 0 1 0 16.4 0 a8.2 8.2 0 1 0 -16.4 0zM1483.14 205 a8.2 8.2 0 1 0 16.4 0 a8.2 8.2 0 1 0 -16.4 0zM1483.14 287 a8.2 8.2 0 1 0 16.4 0 a8.2 8.2 0 1 0 -16.4 0zM1554.15 328 a8.2 8.2 0 1 0 16.4 0 a8.2 8.2 0 1 0 -16.4 0zM1554.15 410 a8.2 8.2 0 1 0 16.4 0 a8.2 8.2 0 1 0 -16.4 0zM1483.14 451 a8.2 8.2 0 1 0 16.4 0 a8.2 8.2 0 1 0 -16.4 0zM1483.14 533 a8.2 8.2 0 1 0 16.4 0 a8.2 8.2 0 1 0 -16.4 0zM1554.15 574 a8.2 8.2 0 1 0 16.4 0 a8.2 8.2 0 1 0 -16.4 0zM1554.15 656 a8.2 8.2 0 1 0 16.4 0 a8.2 8.2 0 1 0 -16.4 0zM1483.14 697 a8.2 8.2 0 1 0 16.4 0 a8.2 8.2 0 1 0 -16.4 0zM1483.14 779 a8.2 8.2 0 1 0 16.4 0 a8.2 8.2 0 1 0 -16.4 0zM1554.15 820 a8.2 8.2 0 1 0 16.4 0 a8.2 8.2 0 1 0 -16.4 0zM1554.15 902 a8.2 8.2 0 1 0 16.4 0 a8.2 8.2 0 1 0 -16.4 0zM1483.14 943 a8.2 8.2 0 1 0 16.4 0 a8.2 8.2 0 1 0 -16.4 0zM1483.14 1025 a8.2 8.2 0 1 0 16.4 0 a8.2 8.2 0 1 0 -16.4 0zM1554.15 1066 a8.2 8.2 0 1 0 16.4 0 a8.2 8.2 0 1 0 -16.4 0zM1554.15 1148 a8.2 8.2 0 1 0 16.4 0 a8.2 8.2 0 1 0 -16.4 0zM1483.14 1189 a8.2 8.2 0 1 0 16.4 0 a8.2 8.2 0 1 0 -16.4 0zM1554.15 -82 a8.2 8.2 0 1 0 16.4 0 a8.2 8.2 0 1 0 -16.4 0zM1625.17 -41 a8.2 8.2 0 1 0 16.4 0 a8.2 8.2 0 1 0 -16.4 0zM1625.17 41 a8.2 8.2 0 1 0 16.4 0 a8.2 8.2 0 1 0 -16.4 0zM1696.19 82 a8.2 8.2 0 1 0 16.4 0 a8.2 8.2 0 1 0 -16.4 0zM1696.19 164 a8.2 8.2 0 1 0 16.4 0 a8.2 8.2 0 1 0 -16.4 0zM1625.17 205 a8.2 8.2 0 1 0 16.4 0 a8.2 8.2 0 1 0 -16.4 0zM1625.17 287 a8.2 8.2 0 1 0 16.4 0 a8.2 8.2 0 1 0 -16.4 0zM1696.19 328 a8.2 8.2 0 1 0 16.4 0 a8.2 8.2 0 1 0 -16.4 0zM1696.19 410 a8.2 8.2 0 1 0 16.4 0 a8.2 8.2 0 1 0 -16.4 0zM1625.17 451 a8.2 8.2 0 1 0 16.4 0 a8.2 8.2 0 1 0 -16.4 0zM1625.17 533 a8.2 8.2 0 1 0 16.4 0 a8.2 8.2 0 1 0 -16.4 0zM1696.19 574 a8.2 8.2 0 1 0 16.4 0 a8.2 8.2 0 1 0 -16.4 0zM1696.19 656 a8.2 8.2 0 1 0 16.4 0 a8.2 8.2 0 1 0 -16.4 0zM1625.17 697 a8.2 8.2 0 1 0 16.4 0 a8.2 8.2 0 1 0 -16.4 0zM1625.17 779 a8.2 8.2 0 1 0 16.4 0 a8.2 8.2 0 1 0 -16.4 0zM1696.19 820 a8.2 8.2 0 1 0 16.4 0 a8.2 8.2 0 1 0 -16.4 0zM1696.19 902 a8.2 8.2 0 1 0 16.4 0 a8.2 8.2 0 1 0 -16.4 0zM1625.17 943 a8.2 8.2 0 1 0 16.4 0 a8.2 8.2 0 1 0 -16.4 0zM1625.17 1025 a8.2 8.2 0 1 0 16.4 0 a8.2 8.2 0 1 0 -16.4 0zM1696.19 1066 a8.2 8.2 0 1 0 16.4 0 a8.2 8.2 0 1 0 -16.4 0zM1696.19 1148 a8.2 8.2 0 1 0 16.4 0 a8.2 8.2 0 1 0 -16.4 0zM1625.17 1189 a8.2 8.2 0 1 0 16.4 0 a8.2 8.2 0 1 0 -16.4 0zM1696.19 -82 a8.2 8.2 0 1 0 16.4 0 a8.2 8.2 0 1 0 -16.4 0zM1767.2 -41 a8.2 8.2 0 1 0 16.4 0 a8.2 8.2 0 1 0 -16.4 0zM1767.2 41 a8.2 8.2 0 1 0 16.4 0 a8.2 8.2 0 1 0 -16.4 0zM1838.22 82 a8.2 8.2 0 1 0 16.4 0 a8.2 8.2 0 1 0 -16.4 0zM1838.22 164 a8.2 8.2 0 1 0 16.4 0 a8.2 8.2 0 1 0 -16.4 0zM1767.2 205 a8.2 8.2 0 1 0 16.4 0 a8.2 8.2 0 1 0 -16.4 0zM1767.2 287 a8.2 8.2 0 1 0 16.4 0 a8.2 8.2 0 1 0 -16.4 0zM1838.22 328 a8.2 8.2 0 1 0 16.4 0 a8.2 8.2 0 1 0 -16.4 0zM1838.22 410 a8.2 8.2 0 1 0 16.4 0 a8.2 8.2 0 1 0 -16.4 0zM1767.2 451 a8.2 8.2 0 1 0 16.4 0 a8.2 8.2 0 1 0 -16.4 0zM1767.2 533 a8.2 8.2 0 1 0 16.4 0 a8.2 8.2 0 1 0 -16.4 0zM1838.22 574 a8.2 8.2 0 1 0 16.4 0 a8.2 8.2 0 1 0 -16.4 0zM1838.22 656 a8.2 8.2 0 1 0 16.4 0 a8.2 8.2 0 1 0 -16.4 0zM1767.2 697 a8.2 8.2 0 1 0 16.4 0 a8.2 8.2 0 1 0 -16.4 0zM1767.2 779 a8.2 8.2 0 1 0 16.4 0 a8.2 8.2 0 1 0 -16.4 0zM1838.22 820 a8.2 8.2 0 1 0 16.4 0 a8.2 8.2 0 1 0 -16.4 0zM1838.22 902 a8.2 8.2 0 1 0 16.4 0 a8.2 8.2 0 1 0 -16.4 0zM1767.2 943 a8.2 8.2 0 1 0 16.4 0 a8.2 8.2 0 1 0 -16.4 0zM1767.2 1025 a8.2 8.2 0 1 0 16.4 0 a8.2 8.2 0 1 0 -16.4 0zM1838.22 1066 a8.2 8.2 0 1 0 16.4 0 a8.2 8.2 0 1 0 -16.4 0zM1838.22 1148 a8.2 8.2 0 1 0 16.4 0 a8.2 8.2 0 1 0 -16.4 0zM1767.2 1189 a8.2 8.2 0 1 0 16.4 0 a8.2 8.2 0 1 0 -16.4 0zM1838.22 -82 a8.2 8.2 0 1 0 16.4 0 a8.2 8.2 0 1 0 -16.4 0zM1909.23 -41 a8.2 8.2 0 1 0 16.4 0 a8.2 8.2 0 1 0 -16.4 0zM1909.23 41 a8.2 8.2 0 1 0 16.4 0 a8.2 8.2 0 1 0 -16.4 0zM1980.25 82 a8.2 8.2 0 1 0 16.4 0 a8.2 8.2 0 1 0 -16.4 0zM1980.25 164 a8.2 8.2 0 1 0 16.4 0 a8.2 8.2 0 1 0 -16.4 0zM1909.23 205 a8.2 8.2 0 1 0 16.4 0 a8.2 8.2 0 1 0 -16.4 0zM1909.23 287 a8.2 8.2 0 1 0 16.4 0 a8.2 8.2 0 1 0 -16.4 0zM1980.25 328 a8.2 8.2 0 1 0 16.4 0 a8.2 8.2 0 1 0 -16.4 0zM1980.25 410 a8.2 8.2 0 1 0 16.4 0 a8.2 8.2 0 1 0 -16.4 0zM1909.23 451 a8.2 8.2 0 1 0 16.4 0 a8.2 8.2 0 1 0 -16.4 0zM1909.23 533 a8.2 8.2 0 1 0 16.4 0 a8.2 8.2 0 1 0 -16.4 0zM1980.25 574 a8.2 8.2 0 1 0 16.4 0 a8.2 8.2 0 1 0 -16.4 0zM1980.25 656 a8.2 8.2 0 1 0 16.4 0 a8.2 8.2 0 1 0 -16.4 0zM1909.23 697 a8.2 8.2 0 1 0 16.4 0 a8.2 8.2 0 1 0 -16.4 0zM1909.23 779 a8.2 8.2 0 1 0 16.4 0 a8.2 8.2 0 1 0 -16.4 0zM1980.25 820 a8.2 8.2 0 1 0 16.4 0 a8.2 8.2 0 1 0 -16.4 0zM1980.25 902 a8.2 8.2 0 1 0 16.4 0 a8.2 8.2 0 1 0 -16.4 0zM1909.23 943 a8.2 8.2 0 1 0 16.4 0 a8.2 8.2 0 1 0 -16.4 0zM1909.23 1025 a8.2 8.2 0 1 0 16.4 0 a8.2 8.2 0 1 0 -16.4 0zM1980.25 1066 a8.2 8.2 0 1 0 16.4 0 a8.2 8.2 0 1 0 -16.4 0zM1980.25 1148 a8.2 8.2 0 1 0 16.4 0 a8.2 8.2 0 1 0 -16.4 0zM1909.23 1189 a8.2 8.2 0 1 0 16.4 0 a8.2 8.2 0 1 0 -16.4 0z" fill="#03305d"></path>
        <path d="M32.92 117.37L76.22 142.37L76.22 192.37L32.92 217.37L-10.38 192.37L-10.38 142.37zM32.92 267.37L76.22 292.37L76.22 342.37L32.92 367.37L-10.38 342.37L-10.38 292.37zM76.22 342.37L119.53 367.37L119.53 417.37L76.22 442.37L32.92 417.37L32.92 367.37zM76.22 942.37L119.53 967.37L119.53 1017.37L76.22 1042.37L32.92 1017.37L32.92 967.37zM32.92 1017.37L76.22 1042.37L76.22 1092.37L32.92 1117.37L-10.38 1092.37L-10.38 1042.37zM119.53 117.37L162.83 142.37L162.83 192.37L119.53 217.37L76.22 192.37L76.22 142.37zM119.53 417.37L162.83 442.37L162.83 492.37L119.53 517.37L76.22 492.37L76.22 442.37zM119.53 867.37L162.83 892.37L162.83 942.37L119.53 967.37L76.22 942.37L76.22 892.37zM206.13 -32.63L249.43 -7.63L249.43 42.37L206.13 67.37L162.83 42.37L162.83 -7.63zM206.13 1017.37L249.43 1042.37L249.43 1092.37L206.13 1117.37L162.83 1092.37L162.83 1042.37zM336.04 492.37L379.34 517.37L379.34 567.37L336.04 592.37L292.74 567.37L292.74 517.37zM292.74 567.37L336.04 592.37L336.04 642.37L292.74 667.37L249.43 642.37L249.43 592.37zM336.04 942.37L379.34 967.37L379.34 1017.37L336.04 1042.37L292.74 1017.37L292.74 967.37zM379.34 567.37L422.64 592.37L422.64 642.37L379.34 667.37L336.04 642.37L336.04 592.37zM509.25 642.37L552.55 667.37L552.55 717.37L509.25 742.37L465.95 717.37L465.95 667.37zM465.95 717.37L509.25 742.37L509.25 792.37L465.95 817.37L422.64 792.37L422.64 742.37zM552.55 417.37L595.85 442.37L595.85 492.37L552.55 517.37L509.25 492.37L509.25 442.37zM552.55 567.37L595.85 592.37L595.85 642.37L552.55 667.37L509.25 642.37L509.25 592.37zM552.55 717.37L595.85 742.37L595.85 792.37L552.55 817.37L509.25 792.37L509.25 742.37zM595.85 792.37L639.15 817.37L639.15 867.37L595.85 892.37L552.55 867.37L552.55 817.37zM595.85 942.37L639.15 967.37L639.15 1017.37L595.85 1042.37L552.55 1017.37L552.55 967.37zM682.46 42.37L725.76 67.37L725.76 117.37L682.46 142.37L639.15 117.37L639.15 67.37zM639.15 117.37L682.46 142.37L682.46 192.37L639.15 217.37L595.85 192.37L595.85 142.37zM682.46 342.37L725.76 367.37L725.76 417.37L682.46 442.37L639.15 417.37L639.15 367.37zM639.15 1017.37L682.46 1042.37L682.46 1092.37L639.15 1117.37L595.85 1092.37L595.85 1042.37zM725.76 417.37L769.06 442.37L769.06 492.37L725.76 517.37L682.46 492.37L682.46 442.37zM769.06 492.37L812.37 517.37L812.37 567.37L769.06 592.37L725.76 567.37L725.76 517.37zM725.76 567.37L769.06 592.37L769.06 642.37L725.76 667.37L682.46 642.37L682.46 592.37zM769.06 642.37L812.37 667.37L812.37 717.37L769.06 742.37L725.76 717.37L725.76 667.37zM812.37 117.37L855.67 142.37L855.67 192.37L812.37 217.37L769.06 192.37L769.06 142.37zM812.37 417.37L855.67 442.37L855.67 492.37L812.37 517.37L769.06 492.37L769.06 442.37zM812.37 867.37L855.67 892.37L855.67 942.37L812.37 967.37L769.06 942.37L769.06 892.37zM855.67 942.37L898.97 967.37L898.97 1017.37L855.67 1042.37L812.37 1017.37L812.37 967.37zM898.97 -32.63L942.27 -7.63L942.27 42.37L898.97 67.37L855.67 42.37L855.67 -7.63zM942.27 492.37L985.58 517.37L985.58 567.37L942.27 592.37L898.97 567.37L898.97 517.37zM942.27 642.37L985.58 667.37L985.58 717.37L942.27 742.37L898.97 717.37L898.97 667.37zM942.27 792.37L985.58 817.37L985.58 867.37L942.27 892.37L898.97 867.37L898.97 817.37zM942.27 942.37L985.58 967.37L985.58 1017.37L942.27 1042.37L898.97 1017.37L898.97 967.37zM985.58 567.37L1028.88 592.37L1028.88 642.37L985.58 667.37L942.27 642.37L942.27 592.37zM1072.18 867.37L1115.48 892.37L1115.48 942.37L1072.18 967.37L1028.88 942.37L1028.88 892.37zM1158.79 117.37L1202.09 142.37L1202.09 192.37L1158.79 217.37L1115.48 192.37L1115.48 142.37zM1202.09 342.37L1245.39 367.37L1245.39 417.37L1202.09 442.37L1158.79 417.37L1158.79 367.37zM1158.79 417.37L1202.09 442.37L1202.09 492.37L1158.79 517.37L1115.48 492.37L1115.48 442.37zM1202.09 792.37L1245.39 817.37L1245.39 867.37L1202.09 892.37L1158.79 867.37L1158.79 817.37zM1288.69 42.37L1332 67.37L1332 117.37L1288.69 142.37L1245.39 117.37L1245.39 67.37zM1332 267.37L1375.3 292.37L1375.3 342.37L1332 367.37L1288.69 342.37L1288.69 292.37zM1375.3 792.37L1418.6 817.37L1418.6 867.37L1375.3 892.37L1332 867.37L1332 817.37zM1332 867.37L1375.3 892.37L1375.3 942.37L1332 967.37L1288.69 942.37L1288.69 892.37zM1418.6 -32.63L1461.9 -7.63L1461.9 42.37L1418.6 67.37L1375.3 42.37L1375.3 -7.63zM1461.9 642.37L1505.21 667.37L1505.21 717.37L1461.9 742.37L1418.6 717.37L1418.6 667.37zM1461.9 942.37L1505.21 967.37L1505.21 1017.37L1461.9 1042.37L1418.6 1017.37L1418.6 967.37zM1418.6 1017.37L1461.9 1042.37L1461.9 1092.37L1418.6 1117.37L1375.3 1092.37L1375.3 1042.37zM1505.21 -32.63L1548.51 -7.63L1548.51 42.37L1505.21 67.37L1461.9 42.37L1461.9 -7.63zM1548.51 42.37L1591.81 67.37L1591.81 117.37L1548.51 142.37L1505.21 117.37L1505.21 67.37zM1505.21 417.37L1548.51 442.37L1548.51 492.37L1505.21 517.37L1461.9 492.37L1461.9 442.37zM1548.51 492.37L1591.81 517.37L1591.81 567.37L1548.51 592.37L1505.21 567.37L1505.21 517.37zM1548.51 792.37L1591.81 817.37L1591.81 867.37L1548.51 892.37L1505.21 867.37L1505.21 817.37zM1505.21 1017.37L1548.51 1042.37L1548.51 1092.37L1505.21 1117.37L1461.9 1092.37L1461.9 1042.37zM1635.11 492.37L1678.42 517.37L1678.42 567.37L1635.11 592.37L1591.81 567.37L1591.81 517.37zM1591.81 567.37L1635.11 592.37L1635.11 642.37L1591.81 667.37L1548.51 642.37L1548.51 592.37zM1635.11 642.37L1678.42 667.37L1678.42 717.37L1635.11 742.37L1591.81 717.37L1591.81 667.37zM1591.81 717.37L1635.11 742.37L1635.11 792.37L1591.81 817.37L1548.51 792.37L1548.51 742.37zM1678.42 -32.63L1721.72 -7.63L1721.72 42.37L1678.42 67.37L1635.11 42.37L1635.11 -7.63zM1721.72 42.37L1765.02 67.37L1765.02 117.37L1721.72 142.37L1678.42 117.37L1678.42 67.37zM1678.42 117.37L1721.72 142.37L1721.72 192.37L1678.42 217.37L1635.11 192.37L1635.11 142.37zM1721.72 192.37L1765.02 217.37L1765.02 267.37L1721.72 292.37L1678.42 267.37L1678.42 217.37zM1721.72 792.37L1765.02 817.37L1765.02 867.37L1721.72 892.37L1678.42 867.37L1678.42 817.37zM1678.42 867.37L1721.72 892.37L1721.72 942.37L1678.42 967.37L1635.11 942.37L1635.11 892.37zM1721.72 942.37L1765.02 967.37L1765.02 1017.37L1721.72 1042.37L1678.42 1017.37L1678.42 967.37zM1765.02 -32.63L1808.32 -7.63L1808.32 42.37L1765.02 67.37L1721.72 42.37L1721.72 -7.63zM1808.32 42.37L1851.63 67.37L1851.63 117.37L1808.32 142.37L1765.02 117.37L1765.02 67.37zM1765.02 267.37L1808.32 292.37L1808.32 342.37L1765.02 367.37L1721.72 342.37L1721.72 292.37zM1808.32 492.37L1851.63 517.37L1851.63 567.37L1808.32 592.37L1765.02 567.37L1765.02 517.37zM1765.02 567.37L1808.32 592.37L1808.32 642.37L1765.02 667.37L1721.72 642.37L1721.72 592.37zM1765.02 867.37L1808.32 892.37L1808.32 942.37L1765.02 967.37L1721.72 942.37L1721.72 892.37zM1894.93 342.37L1938.23 367.37L1938.23 417.37L1894.93 442.37L1851.63 417.37L1851.63 367.37zM1894.93 642.37L1938.23 667.37L1938.23 717.37L1894.93 742.37L1851.63 717.37L1851.63 667.37zM1981.53 192.37L2024.84 217.37L2024.84 267.37L1981.53 292.37L1938.23 267.37L1938.23 217.37zM1938.23 267.37L1981.53 292.37L1981.53 342.37L1938.23 367.37L1894.93 342.37L1894.93 292.37zM1981.53 342.37L2024.84 367.37L2024.84 417.37L1981.53 442.37L1938.23 417.37L1938.23 367.37zM1938.23 417.37L1981.53 442.37L1981.53 492.37L1938.23 517.37L1894.93 492.37L1894.93 442.37zM1938.23 567.37L1981.53 592.37L1981.53 642.37L1938.23 667.37L1894.93 642.37L1894.93 592.37zM1981.53 642.37L2024.84 667.37L2024.84 717.37L1981.53 742.37L1938.23 717.37L1938.23 667.37zM1938.23 717.37L1981.53 742.37L1981.53 792.37L1938.23 817.37L1894.93 792.37L1894.93 742.37z" stroke="rgba(6, 80, 156, 0.93)" stroke-width="2"></path>
        <path d="M27.92 117.37 a5 5 0 1 0 10 0 a5 5 0 1 0 -10 0zM71.22 142.37 a5 5 0 1 0 10 0 a5 5 0 1 0 -10 0zM71.22 192.37 a5 5 0 1 0 10 0 a5 5 0 1 0 -10 0zM27.92 217.37 a5 5 0 1 0 10 0 a5 5 0 1 0 -10 0zM-15.38 192.37 a5 5 0 1 0 10 0 a5 5 0 1 0 -10 0zM-15.38 142.37 a5 5 0 1 0 10 0 a5 5 0 1 0 -10 0zM27.92 267.37 a5 5 0 1 0 10 0 a5 5 0 1 0 -10 0zM71.22 292.37 a5 5 0 1 0 10 0 a5 5 0 1 0 -10 0zM71.22 342.37 a5 5 0 1 0 10 0 a5 5 0 1 0 -10 0zM27.92 367.37 a5 5 0 1 0 10 0 a5 5 0 1 0 -10 0zM-15.38 342.37 a5 5 0 1 0 10 0 a5 5 0 1 0 -10 0zM-15.38 292.37 a5 5 0 1 0 10 0 a5 5 0 1 0 -10 0zM114.53 367.37 a5 5 0 1 0 10 0 a5 5 0 1 0 -10 0zM114.53 417.37 a5 5 0 1 0 10 0 a5 5 0 1 0 -10 0zM71.22 442.37 a5 5 0 1 0 10 0 a5 5 0 1 0 -10 0zM27.92 417.37 a5 5 0 1 0 10 0 a5 5 0 1 0 -10 0zM71.22 942.37 a5 5 0 1 0 10 0 a5 5 0 1 0 -10 0zM114.53 967.37 a5 5 0 1 0 10 0 a5 5 0 1 0 -10 0zM114.53 1017.37 a5 5 0 1 0 10 0 a5 5 0 1 0 -10 0zM71.22 1042.37 a5 5 0 1 0 10 0 a5 5 0 1 0 -10 0zM27.92 1017.37 a5 5 0 1 0 10 0 a5 5 0 1 0 -10 0zM27.92 967.37 a5 5 0 1 0 10 0 a5 5 0 1 0 -10 0zM71.22 1092.37 a5 5 0 1 0 10 0 a5 5 0 1 0 -10 0zM27.92 1117.37 a5 5 0 1 0 10 0 a5 5 0 1 0 -10 0zM-15.38 1092.37 a5 5 0 1 0 10 0 a5 5 0 1 0 -10 0zM-15.38 1042.37 a5 5 0 1 0 10 0 a5 5 0 1 0 -10 0zM114.53 117.37 a5 5 0 1 0 10 0 a5 5 0 1 0 -10 0zM157.83 142.37 a5 5 0 1 0 10 0 a5 5 0 1 0 -10 0zM157.83 192.37 a5 5 0 1 0 10 0 a5 5 0 1 0 -10 0zM114.53 217.37 a5 5 0 1 0 10 0 a5 5 0 1 0 -10 0zM157.83 442.37 a5 5 0 1 0 10 0 a5 5 0 1 0 -10 0zM157.83 492.37 a5 5 0 1 0 10 0 a5 5 0 1 0 -10 0zM114.53 517.37 a5 5 0 1 0 10 0 a5 5 0 1 0 -10 0zM71.22 492.37 a5 5 0 1 0 10 0 a5 5 0 1 0 -10 0zM114.53 867.37 a5 5 0 1 0 10 0 a5 5 0 1 0 -10 0zM157.83 892.37 a5 5 0 1 0 10 0 a5 5 0 1 0 -10 0zM157.83 942.37 a5 5 0 1 0 10 0 a5 5 0 1 0 -10 0zM71.22 892.37 a5 5 0 1 0 10 0 a5 5 0 1 0 -10 0zM201.13 -32.63 a5 5 0 1 0 10 0 a5 5 0 1 0 -10 0zM244.43 -7.63 a5 5 0 1 0 10 0 a5 5 0 1 0 -10 0zM244.43 42.37 a5 5 0 1 0 10 0 a5 5 0 1 0 -10 0zM201.13 67.37 a5 5 0 1 0 10 0 a5 5 0 1 0 -10 0zM157.83 42.37 a5 5 0 1 0 10 0 a5 5 0 1 0 -10 0zM157.83 -7.63 a5 5 0 1 0 10 0 a5 5 0 1 0 -10 0zM201.13 1017.37 a5 5 0 1 0 10 0 a5 5 0 1 0 -10 0zM244.43 1042.37 a5 5 0 1 0 10 0 a5 5 0 1 0 -10 0zM244.43 1092.37 a5 5 0 1 0 10 0 a5 5 0 1 0 -10 0zM201.13 1117.37 a5 5 0 1 0 10 0 a5 5 0 1 0 -10 0zM157.83 1092.37 a5 5 0 1 0 10 0 a5 5 0 1 0 -10 0zM157.83 1042.37 a5 5 0 1 0 10 0 a5 5 0 1 0 -10 0zM331.04 492.37 a5 5 0 1 0 10 0 a5 5 0 1 0 -10 0zM374.34 517.37 a5 5 0 1 0 10 0 a5 5 0 1 0 -10 0zM374.34 567.37 a5 5 0 1 0 10 0 a5 5 0 1 0 -10 0zM331.04 592.37 a5 5 0 1 0 10 0 a5 5 0 1 0 -10 0zM287.74 567.37 a5 5 0 1 0 10 0 a5 5 0 1 0 -10 0zM287.74 517.37 a5 5 0 1 0 10 0 a5 5 0 1 0 -10 0zM331.04 642.37 a5 5 0 1 0 10 0 a5 5 0 1 0 -10 0zM287.74 667.37 a5 5 0 1 0 10 0 a5 5 0 1 0 -10 0zM244.43 642.37 a5 5 0 1 0 10 0 a5 5 0 1 0 -10 0zM244.43 592.37 a5 5 0 1 0 10 0 a5 5 0 1 0 -10 0zM331.04 942.37 a5 5 0 1 0 10 0 a5 5 0 1 0 -10 0zM374.34 967.37 a5 5 0 1 0 10 0 a5 5 0 1 0 -10 0zM374.34 1017.37 a5 5 0 1 0 10 0 a5 5 0 1 0 -10 0zM331.04 1042.37 a5 5 0 1 0 10 0 a5 5 0 1 0 -10 0zM287.74 1017.37 a5 5 0 1 0 10 0 a5 5 0 1 0 -10 0zM287.74 967.37 a5 5 0 1 0 10 0 a5 5 0 1 0 -10 0zM417.64 592.37 a5 5 0 1 0 10 0 a5 5 0 1 0 -10 0zM417.64 642.37 a5 5 0 1 0 10 0 a5 5 0 1 0 -10 0zM374.34 667.37 a5 5 0 1 0 10 0 a5 5 0 1 0 -10 0zM504.25 642.37 a5 5 0 1 0 10 0 a5 5 0 1 0 -10 0zM547.55 667.37 a5 5 0 1 0 10 0 a5 5 0 1 0 -10 0zM547.55 717.37 a5 5 0 1 0 10 0 a5 5 0 1 0 -10 0zM504.25 742.37 a5 5 0 1 0 10 0 a5 5 0 1 0 -10 0zM460.95 717.37 a5 5 0 1 0 10 0 a5 5 0 1 0 -10 0zM460.95 667.37 a5 5 0 1 0 10 0 a5 5 0 1 0 -10 0zM504.25 792.37 a5 5 0 1 0 10 0 a5 5 0 1 0 -10 0zM460.95 817.37 a5 5 0 1 0 10 0 a5 5 0 1 0 -10 0zM417.64 792.37 a5 5 0 1 0 10 0 a5 5 0 1 0 -10 0zM417.64 742.37 a5 5 0 1 0 10 0 a5 5 0 1 0 -10 0zM547.55 417.37 a5 5 0 1 0 10 0 a5 5 0 1 0 -10 0zM590.85 442.37 a5 5 0 1 0 10 0 a5 5 0 1 0 -10 0zM590.85 492.37 a5 5 0 1 0 10 0 a5 5 0 1 0 -10 0zM547.55 517.37 a5 5 0 1 0 10 0 a5 5 0 1 0 -10 0zM504.25 492.37 a5 5 0 1 0 10 0 a5 5 0 1 0 -10 0zM504.25 442.37 a5 5 0 1 0 10 0 a5 5 0 1 0 -10 0zM547.55 567.37 a5 5 0 1 0 10 0 a5 5 0 1 0 -10 0zM590.85 592.37 a5 5 0 1 0 10 0 a5 5 0 1 0 -10 0zM590.85 642.37 a5 5 0 1 0 10 0 a5 5 0 1 0 -10 0zM504.25 592.37 a5 5 0 1 0 10 0 a5 5 0 1 0 -10 0zM590.85 742.37 a5 5 0 1 0 10 0 a5 5 0 1 0 -10 0zM590.85 792.37 a5 5 0 1 0 10 0 a5 5 0 1 0 -10 0zM547.55 817.37 a5 5 0 1 0 10 0 a5 5 0 1 0 -10 0zM634.15 817.37 a5 5 0 1 0 10 0 a5 5 0 1 0 -10 0zM634.15 867.37 a5 5 0 1 0 10 0 a5 5 0 1 0 -10 0zM590.85 892.37 a5 5 0 1 0 10 0 a5 5 0 1 0 -10 0zM547.55 867.37 a5 5 0 1 0 10 0 a5 5 0 1 0 -10 0zM590.85 942.37 a5 5 0 1 0 10 0 a5 5 0 1 0 -10 0zM634.15 967.37 a5 5 0 1 0 10 0 a5 5 0 1 0 -10 0zM634.15 1017.37 a5 5 0 1 0 10 0 a5 5 0 1 0 -10 0zM590.85 1042.37 a5 5 0 1 0 10 0 a5 5 0 1 0 -10 0zM547.55 1017.37 a5 5 0 1 0 10 0 a5 5 0 1 0 -10 0zM547.55 967.37 a5 5 0 1 0 10 0 a5 5 0 1 0 -10 0zM677.46 42.37 a5 5 0 1 0 10 0 a5 5 0 1 0 -10 0zM720.76 67.37 a5 5 0 1 0 10 0 a5 5 0 1 0 -10 0zM720.76 117.37 a5 5 0 1 0 10 0 a5 5 0 1 0 -10 0zM677.46 142.37 a5 5 0 1 0 10 0 a5 5 0 1 0 -10 0zM634.15 117.37 a5 5 0 1 0 10 0 a5 5 0 1 0 -10 0zM634.15 67.37 a5 5 0 1 0 10 0 a5 5 0 1 0 -10 0zM677.46 192.37 a5 5 0 1 0 10 0 a5 5 0 1 0 -10 0zM634.15 217.37 a5 5 0 1 0 10 0 a5 5 0 1 0 -10 0zM590.85 192.37 a5 5 0 1 0 10 0 a5 5 0 1 0 -10 0zM590.85 142.37 a5 5 0 1 0 10 0 a5 5 0 1 0 -10 0zM677.46 342.37 a5 5 0 1 0 10 0 a5 5 0 1 0 -10 0zM720.76 367.37 a5 5 0 1 0 10 0 a5 5 0 1 0 -10 0zM720.76 417.37 a5 5 0 1 0 10 0 a5 5 0 1 0 -10 0zM677.46 442.37 a5 5 0 1 0 10 0 a5 5 0 1 0 -10 0zM634.15 417.37 a5 5 0 1 0 10 0 a5 5 0 1 0 -10 0zM634.15 367.37 a5 5 0 1 0 10 0 a5 5 0 1 0 -10 0zM677.46 1042.37 a5 5 0 1 0 10 0 a5 5 0 1 0 -10 0zM677.46 1092.37 a5 5 0 1 0 10 0 a5 5 0 1 0 -10 0zM634.15 1117.37 a5 5 0 1 0 10 0 a5 5 0 1 0 -10 0zM590.85 1092.37 a5 5 0 1 0 10 0 a5 5 0 1 0 -10 0zM764.06 442.37 a5 5 0 1 0 10 0 a5 5 0 1 0 -10 0zM764.06 492.37 a5 5 0 1 0 10 0 a5 5 0 1 0 -10 0zM720.76 517.37 a5 5 0 1 0 10 0 a5 5 0 1 0 -10 0zM677.46 492.37 a5 5 0 1 0 10 0 a5 5 0 1 0 -10 0zM807.37 517.37 a5 5 0 1 0 10 0 a5 5 0 1 0 -10 0zM807.37 567.37 a5 5 0 1 0 10 0 a5 5 0 1 0 -10 0zM764.06 592.37 a5 5 0 1 0 10 0 a5 5 0 1 0 -10 0zM720.76 567.37 a5 5 0 1 0 10 0 a5 5 0 1 0 -10 0zM764.06 642.37 a5 5 0 1 0 10 0 a5 5 0 1 0 -10 0zM720.76 667.37 a5 5 0 1 0 10 0 a5 5 0 1 0 -10 0zM677.46 642.37 a5 5 0 1 0 10 0 a5 5 0 1 0 -10 0zM677.46 592.37 a5 5 0 1 0 10 0 a5 5 0 1 0 -10 0zM807.37 667.37 a5 5 0 1 0 10 0 a5 5 0 1 0 -10 0zM807.37 717.37 a5 5 0 1 0 10 0 a5 5 0 1 0 -10 0zM764.06 742.37 a5 5 0 1 0 10 0 a5 5 0 1 0 -10 0zM720.76 717.37 a5 5 0 1 0 10 0 a5 5 0 1 0 -10 0zM807.37 117.37 a5 5 0 1 0 10 0 a5 5 0 1 0 -10 0zM850.67 142.37 a5 5 0 1 0 10 0 a5 5 0 1 0 -10 0zM850.67 192.37 a5 5 0 1 0 10 0 a5 5 0 1 0 -10 0zM807.37 217.37 a5 5 0 1 0 10 0 a5 5 0 1 0 -10 0zM764.06 192.37 a5 5 0 1 0 10 0 a5 5 0 1 0 -10 0zM764.06 142.37 a5 5 0 1 0 10 0 a5 5 0 1 0 -10 0zM807.37 417.37 a5 5 0 1 0 10 0 a5 5 0 1 0 -10 0zM850.67 442.37 a5 5 0 1 0 10 0 a5 5 0 1 0 -10 0zM850.67 492.37 a5 5 0 1 0 10 0 a5 5 0 1 0 -10 0zM807.37 867.37 a5 5 0 1 0 10 0 a5 5 0 1 0 -10 0zM850.67 892.37 a5 5 0 1 0 10 0 a5 5 0 1 0 -10 0zM850.67 942.37 a5 5 0 1 0 10 0 a5 5 0 1 0 -10 0zM807.37 967.37 a5 5 0 1 0 10 0 a5 5 0 1 0 -10 0zM764.06 942.37 a5 5 0 1 0 10 0 a5 5 0 1 0 -10 0zM764.06 892.37 a5 5 0 1 0 10 0 a5 5 0 1 0 -10 0zM893.97 967.37 a5 5 0 1 0 10 0 a5 5 0 1 0 -10 0zM893.97 1017.37 a5 5 0 1 0 10 0 a5 5 0 1 0 -10 0zM850.67 1042.37 a5 5 0 1 0 10 0 a5 5 0 1 0 -10 0zM807.37 1017.37 a5 5 0 1 0 10 0 a5 5 0 1 0 -10 0zM893.97 -32.63 a5 5 0 1 0 10 0 a5 5 0 1 0 -10 0zM937.27 -7.63 a5 5 0 1 0 10 0 a5 5 0 1 0 -10 0zM937.27 42.37 a5 5 0 1 0 10 0 a5 5 0 1 0 -10 0zM893.97 67.37 a5 5 0 1 0 10 0 a5 5 0 1 0 -10 0zM850.67 42.37 a5 5 0 1 0 10 0 a5 5 0 1 0 -10 0zM850.67 -7.63 a5 5 0 1 0 10 0 a5 5 0 1 0 -10 0zM937.27 492.37 a5 5 0 1 0 10 0 a5 5 0 1 0 -10 0zM980.58 517.37 a5 5 0 1 0 10 0 a5 5 0 1 0 -10 0zM980.58 567.37 a5 5 0 1 0 10 0 a5 5 0 1 0 -10 0zM937.27 592.37 a5 5 0 1 0 10 0 a5 5 0 1 0 -10 0zM893.97 567.37 a5 5 0 1 0 10 0 a5 5 0 1 0 -10 0zM893.97 517.37 a5 5 0 1 0 10 0 a5 5 0 1 0 -10 0zM937.27 642.37 a5 5 0 1 0 10 0 a5 5 0 1 0 -10 0zM980.58 667.37 a5 5 0 1 0 10 0 a5 5 0 1 0 -10 0zM980.58 717.37 a5 5 0 1 0 10 0 a5 5 0 1 0 -10 0zM937.27 742.37 a5 5 0 1 0 10 0 a5 5 0 1 0 -10 0zM893.97 717.37 a5 5 0 1 0 10 0 a5 5 0 1 0 -10 0zM893.97 667.37 a5 5 0 1 0 10 0 a5 5 0 1 0 -10 0zM937.27 792.37 a5 5 0 1 0 10 0 a5 5 0 1 0 -10 0zM980.58 817.37 a5 5 0 1 0 10 0 a5 5 0 1 0 -10 0zM980.58 867.37 a5 5 0 1 0 10 0 a5 5 0 1 0 -10 0zM937.27 892.37 a5 5 0 1 0 10 0 a5 5 0 1 0 -10 0zM893.97 867.37 a5 5 0 1 0 10 0 a5 5 0 1 0 -10 0zM893.97 817.37 a5 5 0 1 0 10 0 a5 5 0 1 0 -10 0zM937.27 942.37 a5 5 0 1 0 10 0 a5 5 0 1 0 -10 0zM980.58 967.37 a5 5 0 1 0 10 0 a5 5 0 1 0 -10 0zM980.58 1017.37 a5 5 0 1 0 10 0 a5 5 0 1 0 -10 0zM937.27 1042.37 a5 5 0 1 0 10 0 a5 5 0 1 0 -10 0zM1023.88 592.37 a5 5 0 1 0 10 0 a5 5 0 1 0 -10 0zM1023.88 642.37 a5 5 0 1 0 10 0 a5 5 0 1 0 -10 0zM1067.18 867.37 a5 5 0 1 0 10 0 a5 5 0 1 0 -10 0zM1110.48 892.37 a5 5 0 1 0 10 0 a5 5 0 1 0 -10 0zM1110.48 942.37 a5 5 0 1 0 10 0 a5 5 0 1 0 -10 0zM1067.18 967.37 a5 5 0 1 0 10 0 a5 5 0 1 0 -10 0zM1023.88 942.37 a5 5 0 1 0 10 0 a5 5 0 1 0 -10 0zM1023.88 892.37 a5 5 0 1 0 10 0 a5 5 0 1 0 -10 0zM1153.79 117.37 a5 5 0 1 0 10 0 a5 5 0 1 0 -10 0zM1197.09 142.37 a5 5 0 1 0 10 0 a5 5 0 1 0 -10 0zM1197.09 192.37 a5 5 0 1 0 10 0 a5 5 0 1 0 -10 0zM1153.79 217.37 a5 5 0 1 0 10 0 a5 5 0 1 0 -10 0zM1110.48 192.37 a5 5 0 1 0 10 0 a5 5 0 1 0 -10 0zM1110.48 142.37 a5 5 0 1 0 10 0 a5 5 0 1 0 -10 0zM1197.09 342.37 a5 5 0 1 0 10 0 a5 5 0 1 0 -10 0zM1240.39 367.37 a5 5 0 1 0 10 0 a5 5 0 1 0 -10 0zM1240.39 417.37 a5 5 0 1 0 10 0 a5 5 0 1 0 -10 0zM1197.09 442.37 a5 5 0 1 0 10 0 a5 5 0 1 0 -10 0zM1153.79 417.37 a5 5 0 1 0 10 0 a5 5 0 1 0 -10 0zM1153.79 367.37 a5 5 0 1 0 10 0 a5 5 0 1 0 -10 0zM1197.09 492.37 a5 5 0 1 0 10 0 a5 5 0 1 0 -10 0zM1153.79 517.37 a5 5 0 1 0 10 0 a5 5 0 1 0 -10 0zM1110.48 492.37 a5 5 0 1 0 10 0 a5 5 0 1 0 -10 0zM1110.48 442.37 a5 5 0 1 0 10 0 a5 5 0 1 0 -10 0zM1197.09 792.37 a5 5 0 1 0 10 0 a5 5 0 1 0 -10 0zM1240.39 817.37 a5 5 0 1 0 10 0 a5 5 0 1 0 -10 0zM1240.39 867.37 a5 5 0 1 0 10 0 a5 5 0 1 0 -10 0zM1197.09 892.37 a5 5 0 1 0 10 0 a5 5 0 1 0 -10 0zM1153.79 867.37 a5 5 0 1 0 10 0 a5 5 0 1 0 -10 0zM1153.79 817.37 a5 5 0 1 0 10 0 a5 5 0 1 0 -10 0zM1283.69 42.37 a5 5 0 1 0 10 0 a5 5 0 1 0 -10 0zM1327 67.37 a5 5 0 1 0 10 0 a5 5 0 1 0 -10 0zM1327 117.37 a5 5 0 1 0 10 0 a5 5 0 1 0 -10 0zM1283.69 142.37 a5 5 0 1 0 10 0 a5 5 0 1 0 -10 0zM1240.39 117.37 a5 5 0 1 0 10 0 a5 5 0 1 0 -10 0zM1240.39 67.37 a5 5 0 1 0 10 0 a5 5 0 1 0 -10 0zM1327 267.37 a5 5 0 1 0 10 0 a5 5 0 1 0 -10 0zM1370.3 292.37 a5 5 0 1 0 10 0 a5 5 0 1 0 -10 0zM1370.3 342.37 a5 5 0 1 0 10 0 a5 5 0 1 0 -10 0zM1327 367.37 a5 5 0 1 0 10 0 a5 5 0 1 0 -10 0zM1283.69 342.37 a5 5 0 1 0 10 0 a5 5 0 1 0 -10 0zM1283.69 292.37 a5 5 0 1 0 10 0 a5 5 0 1 0 -10 0zM1370.3 792.37 a5 5 0 1 0 10 0 a5 5 0 1 0 -10 0zM1413.6 817.37 a5 5 0 1 0 10 0 a5 5 0 1 0 -10 0zM1413.6 867.37 a5 5 0 1 0 10 0 a5 5 0 1 0 -10 0zM1370.3 892.37 a5 5 0 1 0 10 0 a5 5 0 1 0 -10 0zM1327 867.37 a5 5 0 1 0 10 0 a5 5 0 1 0 -10 0zM1327 817.37 a5 5 0 1 0 10 0 a5 5 0 1 0 -10 0zM1370.3 942.37 a5 5 0 1 0 10 0 a5 5 0 1 0 -10 0zM1327 967.37 a5 5 0 1 0 10 0 a5 5 0 1 0 -10 0zM1283.69 942.37 a5 5 0 1 0 10 0 a5 5 0 1 0 -10 0zM1283.69 892.37 a5 5 0 1 0 10 0 a5 5 0 1 0 -10 0zM1413.6 -32.63 a5 5 0 1 0 10 0 a5 5 0 1 0 -10 0zM1456.9 -7.63 a5 5 0 1 0 10 0 a5 5 0 1 0 -10 0zM1456.9 42.37 a5 5 0 1 0 10 0 a5 5 0 1 0 -10 0zM1413.6 67.37 a5 5 0 1 0 10 0 a5 5 0 1 0 -10 0zM1370.3 42.37 a5 5 0 1 0 10 0 a5 5 0 1 0 -10 0zM1370.3 -7.63 a5 5 0 1 0 10 0 a5 5 0 1 0 -10 0zM1456.9 642.37 a5 5 0 1 0 10 0 a5 5 0 1 0 -10 0zM1500.21 667.37 a5 5 0 1 0 10 0 a5 5 0 1 0 -10 0zM1500.21 717.37 a5 5 0 1 0 10 0 a5 5 0 1 0 -10 0zM1456.9 742.37 a5 5 0 1 0 10 0 a5 5 0 1 0 -10 0zM1413.6 717.37 a5 5 0 1 0 10 0 a5 5 0 1 0 -10 0zM1413.6 667.37 a5 5 0 1 0 10 0 a5 5 0 1 0 -10 0zM1456.9 942.37 a5 5 0 1 0 10 0 a5 5 0 1 0 -10 0zM1500.21 967.37 a5 5 0 1 0 10 0 a5 5 0 1 0 -10 0zM1500.21 1017.37 a5 5 0 1 0 10 0 a5 5 0 1 0 -10 0zM1456.9 1042.37 a5 5 0 1 0 10 0 a5 5 0 1 0 -10 0zM1413.6 1017.37 a5 5 0 1 0 10 0 a5 5 0 1 0 -10 0zM1413.6 967.37 a5 5 0 1 0 10 0 a5 5 0 1 0 -10 0zM1456.9 1092.37 a5 5 0 1 0 10 0 a5 5 0 1 0 -10 0zM1413.6 1117.37 a5 5 0 1 0 10 0 a5 5 0 1 0 -10 0zM1370.3 1092.37 a5 5 0 1 0 10 0 a5 5 0 1 0 -10 0zM1370.3 1042.37 a5 5 0 1 0 10 0 a5 5 0 1 0 -10 0zM1500.21 -32.63 a5 5 0 1 0 10 0 a5 5 0 1 0 -10 0zM1543.51 -7.63 a5 5 0 1 0 10 0 a5 5 0 1 0 -10 0zM1543.51 42.37 a5 5 0 1 0 10 0 a5 5 0 1 0 -10 0zM1500.21 67.37 a5 5 0 1 0 10 0 a5 5 0 1 0 -10 0zM1586.81 67.37 a5 5 0 1 0 10 0 a5 5 0 1 0 -10 0zM1586.81 117.37 a5 5 0 1 0 10 0 a5 5 0 1 0 -10 0zM1543.51 142.37 a5 5 0 1 0 10 0 a5 5 0 1 0 -10 0zM1500.21 117.37 a5 5 0 1 0 10 0 a5 5 0 1 0 -10 0zM1500.21 417.37 a5 5 0 1 0 10 0 a5 5 0 1 0 -10 0zM1543.51 442.37 a5 5 0 1 0 10 0 a5 5 0 1 0 -10 0zM1543.51 492.37 a5 5 0 1 0 10 0 a5 5 0 1 0 -10 0zM1500.21 517.37 a5 5 0 1 0 10 0 a5 5 0 1 0 -10 0zM1456.9 492.37 a5 5 0 1 0 10 0 a5 5 0 1 0 -10 0zM1456.9 442.37 a5 5 0 1 0 10 0 a5 5 0 1 0 -10 0zM1586.81 517.37 a5 5 0 1 0 10 0 a5 5 0 1 0 -10 0zM1586.81 567.37 a5 5 0 1 0 10 0 a5 5 0 1 0 -10 0zM1543.51 592.37 a5 5 0 1 0 10 0 a5 5 0 1 0 -10 0zM1500.21 567.37 a5 5 0 1 0 10 0 a5 5 0 1 0 -10 0zM1543.51 792.37 a5 5 0 1 0 10 0 a5 5 0 1 0 -10 0zM1586.81 817.37 a5 5 0 1 0 10 0 a5 5 0 1 0 -10 0zM1586.81 867.37 a5 5 0 1 0 10 0 a5 5 0 1 0 -10 0zM1543.51 892.37 a5 5 0 1 0 10 0 a5 5 0 1 0 -10 0zM1500.21 867.37 a5 5 0 1 0 10 0 a5 5 0 1 0 -10 0zM1500.21 817.37 a5 5 0 1 0 10 0 a5 5 0 1 0 -10 0zM1543.51 1042.37 a5 5 0 1 0 10 0 a5 5 0 1 0 -10 0zM1543.51 1092.37 a5 5 0 1 0 10 0 a5 5 0 1 0 -10 0zM1500.21 1117.37 a5 5 0 1 0 10 0 a5 5 0 1 0 -10 0zM1630.11 492.37 a5 5 0 1 0 10 0 a5 5 0 1 0 -10 0zM1673.42 517.37 a5 5 0 1 0 10 0 a5 5 0 1 0 -10 0zM1673.42 567.37 a5 5 0 1 0 10 0 a5 5 0 1 0 -10 0zM1630.11 592.37 a5 5 0 1 0 10 0 a5 5 0 1 0 -10 0zM1630.11 642.37 a5 5 0 1 0 10 0 a5 5 0 1 0 -10 0zM1586.81 667.37 a5 5 0 1 0 10 0 a5 5 0 1 0 -10 0zM1543.51 642.37 a5 5 0 1 0 10 0 a5 5 0 1 0 -10 0zM1673.42 667.37 a5 5 0 1 0 10 0 a5 5 0 1 0 -10 0zM1673.42 717.37 a5 5 0 1 0 10 0 a5 5 0 1 0 -10 0zM1630.11 742.37 a5 5 0 1 0 10 0 a5 5 0 1 0 -10 0zM1586.81 717.37 a5 5 0 1 0 10 0 a5 5 0 1 0 -10 0zM1630.11 792.37 a5 5 0 1 0 10 0 a5 5 0 1 0 -10 0zM1543.51 742.37 a5 5 0 1 0 10 0 a5 5 0 1 0 -10 0zM1673.42 -32.63 a5 5 0 1 0 10 0 a5 5 0 1 0 -10 0zM1716.72 -7.63 a5 5 0 1 0 10 0 a5 5 0 1 0 -10 0zM1716.72 42.37 a5 5 0 1 0 10 0 a5 5 0 1 0 -10 0zM1673.42 67.37 a5 5 0 1 0 10 0 a5 5 0 1 0 -10 0zM1630.11 42.37 a5 5 0 1 0 10 0 a5 5 0 1 0 -10 0zM1630.11 -7.63 a5 5 0 1 0 10 0 a5 5 0 1 0 -10 0zM1760.02 67.37 a5 5 0 1 0 10 0 a5 5 0 1 0 -10 0zM1760.02 117.37 a5 5 0 1 0 10 0 a5 5 0 1 0 -10 0zM1716.72 142.37 a5 5 0 1 0 10 0 a5 5 0 1 0 -10 0zM1673.42 117.37 a5 5 0 1 0 10 0 a5 5 0 1 0 -10 0zM1716.72 192.37 a5 5 0 1 0 10 0 a5 5 0 1 0 -10 0zM1673.42 217.37 a5 5 0 1 0 10 0 a5 5 0 1 0 -10 0zM1630.11 192.37 a5 5 0 1 0 10 0 a5 5 0 1 0 -10 0zM1630.11 142.37 a5 5 0 1 0 10 0 a5 5 0 1 0 -10 0zM1760.02 217.37 a5 5 0 1 0 10 0 a5 5 0 1 0 -10 0zM1760.02 267.37 a5 5 0 1 0 10 0 a5 5 0 1 0 -10 0zM1716.72 292.37 a5 5 0 1 0 10 0 a5 5 0 1 0 -10 0zM1673.42 267.37 a5 5 0 1 0 10 0 a5 5 0 1 0 -10 0zM1716.72 792.37 a5 5 0 1 0 10 0 a5 5 0 1 0 -10 0zM1760.02 817.37 a5 5 0 1 0 10 0 a5 5 0 1 0 -10 0zM1760.02 867.37 a5 5 0 1 0 10 0 a5 5 0 1 0 -10 0zM1716.72 892.37 a5 5 0 1 0 10 0 a5 5 0 1 0 -10 0zM1673.42 867.37 a5 5 0 1 0 10 0 a5 5 0 1 0 -10 0zM1673.42 817.37 a5 5 0 1 0 10 0 a5 5 0 1 0 -10 0zM1716.72 942.37 a5 5 0 1 0 10 0 a5 5 0 1 0 -10 0zM1673.42 967.37 a5 5 0 1 0 10 0 a5 5 0 1 0 -10 0zM1630.11 942.37 a5 5 0 1 0 10 0 a5 5 0 1 0 -10 0zM1630.11 892.37 a5 5 0 1 0 10 0 a5 5 0 1 0 -10 0zM1760.02 967.37 a5 5 0 1 0 10 0 a5 5 0 1 0 -10 0zM1760.02 1017.37 a5 5 0 1 0 10 0 a5 5 0 1 0 -10 0zM1716.72 1042.37 a5 5 0 1 0 10 0 a5 5 0 1 0 -10 0zM1673.42 1017.37 a5 5 0 1 0 10 0 a5 5 0 1 0 -10 0zM1760.02 -32.63 a5 5 0 1 0 10 0 a5 5 0 1 0 -10 0zM1803.32 -7.63 a5 5 0 1 0 10 0 a5 5 0 1 0 -10 0zM1803.32 42.37 a5 5 0 1 0 10 0 a5 5 0 1 0 -10 0zM1846.63 67.37 a5 5 0 1 0 10 0 a5 5 0 1 0 -10 0zM1846.63 117.37 a5 5 0 1 0 10 0 a5 5 0 1 0 -10 0zM1803.32 142.37 a5 5 0 1 0 10 0 a5 5 0 1 0 -10 0zM1803.32 292.37 a5 5 0 1 0 10 0 a5 5 0 1 0 -10 0zM1803.32 342.37 a5 5 0 1 0 10 0 a5 5 0 1 0 -10 0zM1760.02 367.37 a5 5 0 1 0 10 0 a5 5 0 1 0 -10 0zM1716.72 342.37 a5 5 0 1 0 10 0 a5 5 0 1 0 -10 0zM1803.32 492.37 a5 5 0 1 0 10 0 a5 5 0 1 0 -10 0zM1846.63 517.37 a5 5 0 1 0 10 0 a5 5 0 1 0 -10 0zM1846.63 567.37 a5 5 0 1 0 10 0 a5 5 0 1 0 -10 0zM1803.32 592.37 a5 5 0 1 0 10 0 a5 5 0 1 0 -10 0zM1760.02 567.37 a5 5 0 1 0 10 0 a5 5 0 1 0 -10 0zM1760.02 517.37 a5 5 0 1 0 10 0 a5 5 0 1 0 -10 0zM1803.32 642.37 a5 5 0 1 0 10 0 a5 5 0 1 0 -10 0zM1760.02 667.37 a5 5 0 1 0 10 0 a5 5 0 1 0 -10 0zM1716.72 642.37 a5 5 0 1 0 10 0 a5 5 0 1 0 -10 0zM1716.72 592.37 a5 5 0 1 0 10 0 a5 5 0 1 0 -10 0zM1803.32 892.37 a5 5 0 1 0 10 0 a5 5 0 1 0 -10 0zM1803.32 942.37 a5 5 0 1 0 10 0 a5 5 0 1 0 -10 0zM1889.93 342.37 a5 5 0 1 0 10 0 a5 5 0 1 0 -10 0zM1933.23 367.37 a5 5 0 1 0 10 0 a5 5 0 1 0 -10 0zM1933.23 417.37 a5 5 0 1 0 10 0 a5 5 0 1 0 -10 0zM1889.93 442.37 a5 5 0 1 0 10 0 a5 5 0 1 0 -10 0zM1846.63 417.37 a5 5 0 1 0 10 0 a5 5 0 1 0 -10 0zM1846.63 367.37 a5 5 0 1 0 10 0 a5 5 0 1 0 -10 0zM1889.93 642.37 a5 5 0 1 0 10 0 a5 5 0 1 0 -10 0zM1933.23 667.37 a5 5 0 1 0 10 0 a5 5 0 1 0 -10 0zM1933.23 717.37 a5 5 0 1 0 10 0 a5 5 0 1 0 -10 0zM1889.93 742.37 a5 5 0 1 0 10 0 a5 5 0 1 0 -10 0zM1846.63 717.37 a5 5 0 1 0 10 0 a5 5 0 1 0 -10 0zM1846.63 667.37 a5 5 0 1 0 10 0 a5 5 0 1 0 -10 0zM1976.53 192.37 a5 5 0 1 0 10 0 a5 5 0 1 0 -10 0zM2019.84 217.37 a5 5 0 1 0 10 0 a5 5 0 1 0 -10 0zM2019.84 267.37 a5 5 0 1 0 10 0 a5 5 0 1 0 -10 0zM1976.53 292.37 a5 5 0 1 0 10 0 a5 5 0 1 0 -10 0zM1933.23 267.37 a5 5 0 1 0 10 0 a5 5 0 1 0 -10 0zM1933.23 217.37 a5 5 0 1 0 10 0 a5 5 0 1 0 -10 0zM1976.53 342.37 a5 5 0 1 0 10 0 a5 5 0 1 0 -10 0zM1889.93 292.37 a5 5 0 1 0 10 0 a5 5 0 1 0 -10 0zM2019.84 367.37 a5 5 0 1 0 10 0 a5 5 0 1 0 -10 0zM2019.84 417.37 a5 5 0 1 0 10 0 a5 5 0 1 0 -10 0zM1976.53 442.37 a5 5 0 1 0 10 0 a5 5 0 1 0 -10 0zM1976.53 492.37 a5 5 0 1 0 10 0 a5 5 0 1 0 -10 0zM1933.23 517.37 a5 5 0 1 0 10 0 a5 5 0 1 0 -10 0zM1889.93 492.37 a5 5 0 1 0 10 0 a5 5 0 1 0 -10 0zM1933.23 567.37 a5 5 0 1 0 10 0 a5 5 0 1 0 -10 0zM1976.53 592.37 a5 5 0 1 0 10 0 a5 5 0 1 0 -10 0zM1976.53 642.37 a5 5 0 1 0 10 0 a5 5 0 1 0 -10 0zM1889.93 592.37 a5 5 0 1 0 10 0 a5 5 0 1 0 -10 0zM2019.84 667.37 a5 5 0 1 0 10 0 a5 5 0 1 0 -10 0zM2019.84 717.37 a5 5 0 1 0 10 0 a5 5 0 1 0 -10 0zM1976.53 742.37 a5 5 0 1 0 10 0 a5 5 0 1 0 -10 0zM1976.53 792.37 a5 5 0 1 0 10 0 a5 5 0 1 0 -10 0zM1933.23 817.37 a5 5 0 1 0 10 0 a5 5 0 1 0 -10 0zM1889.93 792.37 a5 5 0 1 0 10 0 a5 5 0 1 0 -10 0z" fill="rgba(6, 80, 156, 0.93)"></path>
    </g>
    <defs>
        <mask id="SvgjsMask1403">
            <rect width="1920" height="1080" fill="#ffffff"></rect>
        </mask>
    </defs>
</svg>